<?xml version="1.0" encoding="UTF-8"?>
<svg width="80px" height="80px" viewBox="0 0 80 80" version="1.1" xmlns="http://www.w3.org/2000/svg" xmlns:xlink="http://www.w3.org/1999/xlink">
    <!-- Generator: Sketch 54.1 (76490) - https://sketchapp.com -->
    <title>alarm</title>
    <desc>Created with Sketch.</desc>
    <g id="Page-1" stroke="none" stroke-width="1" fill="none" fill-rule="evenodd">
        <g id="Artboard-Copy-14" transform="translate(-136.000000, -311.000000)" fill-rule="nonzero">
            <g id="alarm" transform="translate(136.000000, 311.000000)">
                <g id="Group" transform="translate(1.093750, 1.250000)">
                    <path d="M68.3704688,76.4576562 C55.6026563,77.8090625 42.8348438,77.8090625 30.0671875,76.4576562 C25.4873438,75.9729688 21.9196875,72.2671875 21.6264063,67.6710938 C20.395625,48.3889063 20.395625,29.1065625 21.6264063,9.82421875 C21.9198438,5.228125 25.4873438,1.5225 30.0671875,1.03765625 C42.835,-0.31375 55.6028125,-0.31375 68.3704688,1.03765625 C72.9503125,1.52234375 76.5178125,5.228125 76.81125,9.82421875 C78.0420313,29.1064063 78.0420313,48.38875 76.81125,67.6710938 C76.5179688,72.2671875 72.9503125,75.9728125 68.3704688,76.4576562 Z" id="Path" fill="#365E7D"></path>
                    <path d="M28.7290625,76.2182813 C24.8084375,75.2240625 21.8896875,71.8082813 21.6264063,67.6710938 C20.3953125,48.3889062 20.3953125,29.1065625 21.6264063,9.824375 C21.8898438,5.6871875 24.8084375,2.27140625 28.7290625,1.2771875 C26.3542188,2.94140625 24.7601563,5.62328125 24.56375,8.686875 C23.284375,28.7279688 23.284375,48.7676563 24.56375,68.80875 C24.76,71.8721875 26.3542188,74.5540625 28.7290625,76.2182813 L28.7290625,76.2182813 Z" id="Path" fill="#2B4D66"></path>
                    <path d="M72.0732813,62.7048438 C71.8301563,66.5117188 68.875625,69.5815625 65.0828125,69.9835938 C54.5067188,71.1025 43.930625,71.1025 33.3560938,69.9835938 C29.5617188,69.5815625 26.6071875,66.5117188 26.3640625,62.7048438 C25.345,46.7339063 25.345,30.7615625 26.3640625,14.790625 C26.6071875,10.98375 29.5617188,7.91390625 33.3560938,7.511875 C34.5934375,7.3809375 35.8290625,7.265625 37.0664063,7.1659375 C37.495,8.84109375 38.9270313,10.1142187 40.7003125,10.3028125 C46.37875,10.9028125 52.0585938,10.9028125 57.7370313,10.3028125 C59.5103125,10.1142187 60.9425,8.84109375 61.3709375,7.1659375 C62.6082813,7.265625 63.8454688,7.3809375 65.0828125,7.511875 C68.875625,7.91390625 71.8301563,10.98375 72.0732813,14.790625 C73.0939063,30.7614062 73.0939063,46.7339063 72.0732813,62.7048438 L72.0732813,62.7048438 Z" id="Path" fill="#F9F6F9"></path>
                    <g transform="translate(16.406250, 22.343750)">
                        <circle id="Oval" fill="#E7A561" cx="7.70109375" cy="29.12375" r="5.72890625"></circle>
                        <path d="M7.04828125,34.8153125 C6.4096875,34.7429687 5.77296875,34.5607812 5.16515625,34.2607813 C2.32796875,32.8601563 1.1634375,29.4251563 2.56390625,26.5878125 C3.96453125,23.750625 7.39953125,22.5860938 10.236875,23.9865625 C10.8446875,24.2865625 11.3765625,24.68125 11.8221875,25.1442188 C9.4878125,24.8740625 7.13296875,26.0704687 6.03234375,28.3 C4.931875,30.5295313 5.414375,33.1265625 7.04828125,34.8153125 L7.04828125,34.8153125 Z" id="Path" fill="#E29375"></path>
                        <path d="M17.3353125,33.8795313 C24.3542188,37.344375 29.7889063,39.2095313 33.8348438,40.1890625 C39.5548438,41.5739063 43.620625,34.7115625 39.6745313,30.3453125 C39.6389063,30.3057813 39.6032813,30.266875 39.5678125,30.2282813 C38.1203125,28.651875 37.6951563,26.3860938 38.5232813,24.4126563 C39.475625,22.1432813 40.1420313,20.1420313 40.6075,18.4264062 C42.3107813,12.1473437 39.815625,5.4546875 34.3695313,1.895625 C33.7776563,1.50890625 33.4071875,1.321875 33.4071875,1.321875 C33.4071875,1.321875 33.0334375,1.14140625 32.3665625,0.906875 C26.2292188,-1.25203125 19.3990625,0.8371875 15.4503125,6.00765625 C14.3714063,7.42046875 13.1879688,9.1665625 11.965625,11.3025 C10.9026563,13.16 8.84546875,14.2003125 6.71375,14.01 C6.6615625,14.0053125 6.60890625,14.0007812 6.5559375,13.9965625 C0.69015625,13.5192187 -2.285,20.92 2.2928125,24.6185938 C5.53078125,27.2346875 10.3164063,30.4146875 17.3353125,33.8795312 L17.3353125,33.8795313 Z" id="Path" fill="#FCA25D"></path>
                        <path d="M33.4071875,1.32078125 C33.4071875,1.32078125 33.2415625,1.24296875 32.925,1.18765625 C30.0065625,0.6640625 25.6659375,4.27296875 22.1945312,10.0576563 C21.2465625,11.6395313 20.1584375,13.5565625 18.95375,15.8473438 C17.9065625,17.8389063 16.4989062,19.3085938 15.3490625,19.6503125 C15.321875,19.6582813 15.2921875,19.6670313 15.2642187,19.6764062 C12.3701562,20.5678125 9.23296875,26.9896875 9.96625,29.889375 C6.7484375,27.9685938 4.24125,26.1907813 2.29375,24.6173438 C-2.2834375,20.9198438 0.69046875,13.5178125 6.5571875,13.9967188 C6.61015625,13.9995313 6.6625,14.0039063 6.71390625,14.01 C8.846875,14.2001563 10.9032813,13.1595313 11.9660938,11.301875 C13.1895313,9.16609375 14.3720313,7.42 15.4501563,6.00734375 C19.4001562,0.83578125 26.229375,-1.25296875 32.3665625,0.90609375 C33.03375,1.14046875 33.4071875,1.32078125 33.4071875,1.32078125 L33.4071875,1.32078125 Z" id="Path" fill="#EF8E44"></path>
                    </g>
                    <g transform="translate(0.000000, 27.031250)" fill="#FCA25D" id="Path">
                        <path d="M10.5773438,5.20703125 L10.41875,5.48171875 C9.85921875,6.45078125 8.645,6.82109375 7.63984375,6.32921875 L4.54828125,4.81625 C3.4409375,4.274375 3.02421875,2.90796875 3.640625,1.8403125 L4.03484375,1.1575 C4.65125,0.08984375 6.04296875,-0.2325 7.0659375,0.455625 L9.921875,2.37671875 C10.8503125,3.00109375 11.1367188,4.23796875 10.5773438,5.20703125 L10.5773438,5.20703125 Z"></path>
                        <path d="M7.76890625,15.3710937 L7.76890625,15.6884375 C7.76890625,16.8073438 6.9025,17.7353125 5.78609375,17.811875 L2.3521875,18.0475 C1.1221875,18.131875 0.078125,17.156875 0.078125,15.9240625 L0.078125,15.135625 C0.078125,13.9028125 1.12234375,12.9278125 2.3521875,13.0121875 L5.78609375,13.2476563 C6.90234375,13.3242188 7.76890625,14.2520313 7.76890625,15.3710937 Z"></path>
                        <path d="M10.4185937,25.5775 L10.5771875,25.8521875 C11.1367188,26.82125 10.8503125,28.058125 9.92171875,28.6825 L7.065625,30.6034375 C6.04265625,31.2914063 4.6509375,30.9692187 4.03453125,29.9015625 L3.6403125,29.21875 C3.02390625,28.1510937 3.440625,26.7846875 4.54796875,26.2428125 L7.63953125,24.7298437 C8.64484375,24.238125 9.85921875,24.6084375 10.4185937,25.5775 L10.4185937,25.5775 Z"></path>
                    </g>
                </g>
                <g id="Group" fill="#000000">
                    <path d="M79.0746875,11.0001562 C78.7448438,5.82359375 74.755,1.66921875 69.5876563,1.12203125 C56.7984375,-0.23171875 43.828125,-0.23171875 31.036875,1.12203125 C25.8714063,1.66921875 21.8817188,5.8234375 21.55,11.0001562 C21.0003125,19.6165625 20.6946875,28.3584375 20.6364063,36.9990625 C18.9801563,37.7296875 17.643125,39.0921875 16.9165625,40.909375 C15.7259375,43.886875 16.565625,47.1110937 19.055625,49.1232812 C19.1125,49.1692187 19.1720312,49.2151563 19.2295313,49.2610938 C19.1535937,49.3926563 19.0809375,49.52625 19.0132812,49.663125 C18.1973438,51.3160938 18.0739063,53.1876562 18.665625,54.9332812 C19.11,56.24375 19.9175,57.3654687 20.991875,58.1884375 C21.1353125,61.7775 21.3220313,65.4090625 21.5501563,68.995625 C21.881875,74.171875 25.8715625,78.3260937 31.0371875,78.8734375 C37.4326562,79.5503125 43.8729687,79.88875 50.313125,79.88875 C56.7532812,79.88875 63.1932812,79.5503125 69.5879687,78.8734375 C74.755,78.32625 78.7448438,74.171875 79.0748437,68.9953125 C80.3023438,49.7539062 80.3023438,30.2415625 79.0746875,11.0001562 Z M21.1139062,50.7028125 C23.3528125,52.3434375 25.9015625,53.9742188 28.745,55.5829687 C28.2084375,56.249375 27.4942187,56.7521875 26.664375,57.0334375 C25.511875,57.4242188 24.275625,57.3426562 23.1840625,56.8039063 C22.0925,56.2651563 21.27625,55.3334375 20.8854687,54.1807813 C20.4948437,53.02875 20.5760937,51.79375 21.1139062,50.7028125 L21.1139062,50.7028125 Z M76.7357813,68.8460938 C76.4785937,72.8792188 73.3685938,76.1160938 69.3410937,76.5426563 C56.7151562,77.8789063 43.9109375,77.8789063 31.28375,76.5426563 C27.2573437,76.1160938 24.1475,72.8790625 23.8890625,68.84625 C23.6890625,65.704375 23.5221875,62.5278125 23.3871875,59.3753125 C23.9789062,59.5378125 24.5857812,59.6220313 25.195,59.6220313 C25.4735937,59.6220313 25.7525,59.6048438 26.030625,59.570625 C26.1096875,61.0973438 26.1959375,62.5917188 26.288125,64.02875 C26.5689062,68.41375 29.9485937,71.9339063 34.325,72.3989063 C39.6289062,72.96 44.97,73.240625 50.3114063,73.240625 C55.6528125,73.240625 60.994375,72.96 66.2984375,72.3989063 C70.6753125,71.9340625 74.055625,68.4139063 74.33625,64.0285938 C75.3551563,48.0828125 75.3551563,31.9125 74.3364062,15.9671875 C74.2642187,14.828125 73.9817187,13.73 73.4967187,12.7032813 C73.2201563,12.1179688 72.5221875,11.8678125 71.9367187,12.1440625 C71.3515625,12.4204688 71.1010937,13.1190625 71.3776563,13.7042188 C71.7354687,14.4620313 71.9440625,15.273125 71.9975,16.1159375 C73.0098437,31.9625 73.0098437,48.0323438 71.9975,63.8789063 C71.79,67.12125 69.2890625,69.7242188 66.0514062,70.0679688 C55.606875,71.1729688 45.015625,71.1729688 34.5720313,70.0679688 C31.3348438,69.7240625 28.8345313,67.1210938 28.6270313,63.8785938 C28.5235937,62.2676563 28.4278125,60.5839063 28.3414062,58.863125 C29.331875,58.3596875 30.1773437,57.62875 30.819375,56.724375 C31.9446875,57.3275 33.1095313,57.9270313 34.3157813,58.5223438 C34.85625,58.79 35.3896875,59.0465625 35.79375,59.24 C36.3773438,59.5195313 37.0771875,59.2728125 37.356875,58.6892188 C37.6364063,58.1054688 37.3896875,57.405625 36.8060938,57.1260938 C36.4084375,56.935625 35.8842188,56.6835938 35.3545313,56.42125 C29.3240625,53.445 24.3359375,50.3760938 20.5285938,47.2996875 C18.4982813,45.6589063 18.455625,43.3720313 19.0926563,41.7789063 C19.7323438,40.1789063 21.3479688,38.5448438 23.9529688,38.7565625 L24.1095313,38.7704688 C26.7039063,39.0025 29.2057813,37.7098438 30.4826563,35.4773438 C31.5595313,33.5948438 32.703125,31.8564063 33.8810938,30.3114063 C37.5510938,25.5057813 43.8192188,23.6145313 49.4778125,25.6054688 C50.0079688,25.7921875 50.3328125,25.940625 50.38875,25.9667188 C50.4460938,25.9965625 50.75875,26.1626563 51.2275,26.4701563 C56.2492188,29.7517188 58.5595313,35.876875 56.9765625,41.7120313 C56.4720313,43.5715625 55.7876563,45.536875 54.9425,47.5529688 C53.9476562,49.9239063 54.4426562,52.6957813 56.2035938,54.614375 C56.2089063,54.6203125 56.214375,54.6260938 56.2198437,54.631875 C56.2451562,54.6582813 56.270625,54.6859375 56.3051562,54.7248438 C58.0632813,56.6701563 57.7479687,58.9454688 56.8670312,60.4260938 C55.9895312,61.900625 54.1478125,63.2570313 51.609375,62.6421875 C48.408125,61.8684375 44.8432813,60.6517188 41.01375,59.0259375 C40.4185937,58.7732813 39.7301562,59.0507813 39.4771875,59.6467188 C39.2242187,60.2425 39.5021875,60.9304688 40.0979687,61.1832813 C44.0453125,62.8592188 47.733125,64.1164063 51.0582813,64.9201563 C51.6473437,65.0628125 52.2345313,65.1321875 52.81125,65.1321875 C55.2814063,65.1321875 57.5515625,63.8589063 58.88125,61.6246875 C60.5259375,58.8610938 60.1975,55.5357813 58.0534375,53.1635938 C58.0101563,53.1145313 57.9667188,53.0673438 57.9234375,53.021875 C56.7851562,51.7757813 56.4632813,49.98625 57.1040625,48.459375 C57.9889063,46.348125 58.7071875,44.2845313 59.2385938,42.325625 C60.8404687,36.42125 59.0254688,30.2621875 54.6971875,26.2246875 C56.0778125,25.7396875 57.1934375,24.7532813 57.8423438,23.4389063 C58.5003125,22.1059375 58.5998438,20.5964063 58.1226563,19.1885938 C57.6453125,17.7807813 56.6482813,16.6429688 55.3153125,15.985 C53.9823438,15.3270313 52.4729688,15.2273438 51.065,15.7046875 C49.6571875,16.1820313 48.5195313,17.1789063 47.8614063,18.511875 C47.1920313,19.8679688 47.1289063,21.3673438 47.5651563,22.7025 C41.7259375,21.7209375 35.7321875,24.0260938 32.0179688,28.8895313 C30.7771875,30.5170313 29.57625,32.341875 28.4482813,34.3135938 C28.2925,34.5860938 28.1078125,34.8367188 27.8998438,35.063125 C27.9821875,28.7489063 28.2253125,22.3859375 28.6271875,16.115625 C28.8346875,12.8732813 31.335,10.2703125 34.5717188,9.92640625 C35.5125,9.82671875 36.4495313,9.7365625 37.3673438,9.65734375 C38.15875,11.3307813 39.7867188,12.5178125 41.670625,12.7170313 C47.405,13.3229688 53.2201563,13.3229688 58.9542188,12.7170313 C60.838125,12.5178125 62.46625,11.3307813 63.2575,9.65734375 C64.1798438,9.73703125 65.1160938,9.82703125 66.0515625,9.92640625 C66.9871875,10.0254688 67.8732813,10.31375 68.685,10.7832813 C69.2453125,11.1073438 69.9621875,10.9157813 70.2860938,10.355625 C70.6101563,9.7953125 70.41875,9.0784375 69.8584375,8.754375 C68.760625,8.119375 67.5628125,7.729375 66.2985937,7.595625 C65.0425,7.4621875 63.7842188,7.345 62.5585938,7.24734375 C61.9915625,7.20203125 61.4721875,7.57203125 61.3304688,8.1240625 C61.0171875,9.344375 59.9632813,10.2532813 58.7079687,10.3860938 C53.1370312,10.9748438 47.4878125,10.9748438 41.916875,10.3860938 C40.6617188,10.2542188 39.6078125,9.3453125 39.294375,8.125 C39.1526563,7.57296875 38.6345313,7.203125 38.06625,7.24828125 C36.849375,7.34515625 35.590625,7.46234375 34.3245313,7.5965625 C29.94875,8.0615625 26.5689063,11.5817188 26.288125,15.9665625 C25.8553125,22.7204688 25.6060938,29.5809375 25.5420313,36.3739063 C25.145,36.4507813 24.733125,36.4739063 24.3170313,36.4367188 L24.1510938,36.4220313 C23.75625,36.3898438 23.366875,36.3889063 22.9853125,36.416875 C23.053125,28.0153125 23.3548438,19.523125 23.8890625,11.1498438 C24.1475,7.1165625 27.2575,3.87953125 31.28375,3.45296875 C43.9107813,2.1165625 56.7153125,2.1165625 69.3409375,3.45296875 C73.3685938,3.87953125 76.47875,7.11640625 76.7357813,11.1495313 C77.9570312,30.2917188 77.9570312,49.70375 76.7357813,68.8460938 L76.7357813,68.8460938 Z M51.4259375,23.865 C49.833125,23.07875 49.1767188,21.1429688 49.9632813,19.5501563 C50.3442188,18.7785938 51.0026563,18.2014063 51.8176563,17.9251563 C52.1570313,17.81 52.5065625,17.7529688 52.8548438,17.7529688 C53.3426563,17.7529688 53.8278125,17.8651563 54.2779688,18.0875 C55.0495313,18.4684375 55.6267188,19.1270313 55.9029687,19.941875 C56.1792187,20.756875 56.1215625,21.630625 55.740625,22.4021875 C55.3596875,23.17375 54.70125,23.7509375 53.88625,24.0271875 C53.0710938,24.3034375 52.1973438,24.2459375 51.4259375,23.865 Z" id="Shape"></path>
                    <path d="M56.064375,5.40078125 L44.5604688,5.40078125 C43.913125,5.40078125 43.3885938,5.92546875 43.3885938,6.57265625 C43.3885938,7.21984375 43.913125,7.74453125 44.5604688,7.74453125 L56.064375,7.74453125 C56.7117188,7.74453125 57.23625,7.21984375 57.23625,6.57265625 C57.23625,5.92546875 56.7117188,5.40078125 56.064375,5.40078125 Z" id="Path"></path>
                    <path d="M11.6696875,29.6854687 L8.81375,27.7645312 C8.05765625,27.2560937 7.115,27.0821875 6.2271875,27.2878125 C5.33953125,27.4934375 4.56921875,28.0639062 4.11375,28.8528125 L3.71953125,29.535625 C3.26390625,30.3246875 3.15515625,31.2771875 3.4209375,32.14875 C3.68671875,33.0201562 4.30859375,33.7496875 5.126875,34.1501562 L8.2184375,35.663125 C8.6809375,35.889375 9.17375,35.9970312 9.66046875,35.9970312 C10.8071875,35.9970312 11.9207813,35.3995312 12.5273438,34.3490625 L12.6860938,34.0742187 L12.6860938,34.0740625 C13.55,32.5776562 13.1035938,30.65 11.6696875,29.6854687 L11.6696875,29.6854687 Z M10.65625,32.9023437 L10.4975,33.1771875 C10.2470313,33.6109375 9.698125,33.778125 9.24859375,33.558125 L6.15703125,32.0451562 C5.91640625,31.9273437 5.74078125,31.72125 5.6625,31.465 C5.584375,31.2085937 5.615,30.9396875 5.7490625,30.7076562 L6.14328125,30.0248437 C6.2771875,29.7928125 6.49484375,29.6317187 6.75578125,29.57125 C6.82875,29.554375 6.90203125,29.5459375 6.97453125,29.5459375 C7.16203125,29.5459375 7.34515625,29.6015625 7.50546875,29.709375 L10.3614062,31.6303125 C10.7771875,31.9098437 10.9065625,32.4685937 10.65625,32.9023437 L10.65625,32.9023437 Z" id="Shape"></path>
                    <path d="M3.52609375,47.4976563 L6.96,47.2620313 C8.6840625,47.14375 10.0345313,45.6975 10.0345313,43.969375 L10.0345313,43.6520313 C10.0345313,41.9240625 8.6840625,40.4778125 6.96,40.359375 L3.52609375,40.1239063 C2.6178125,40.0614063 1.71375,40.3823438 1.0478125,41.0042188 C0.381875,41.6264063 2.66453526e-15,42.505625 2.66453526e-15,43.4167188 L2.66453526e-15,44.205 C2.66453526e-15,45.1160938 0.381875,45.9953125 1.04796875,46.6171875 C1.659375,47.1879688 2.47046875,47.5051563 3.30265625,47.5051563 C3.376875,47.5053125 3.4515625,47.5028125 3.52609375,47.4976563 L3.52609375,47.4976563 Z M2.6475,44.9042188 C2.45171875,44.7214063 2.34375,44.4729688 2.34375,44.205 L2.34375,43.4167188 C2.34375,43.14875 2.4515625,42.9004688 2.6475,42.7175 C2.82671875,42.55 3.055625,42.46 3.298125,42.46 C3.320625,42.46 3.343125,42.4607812 3.36578125,42.4623437 L6.7996875,42.6978125 C7.299375,42.7320312 7.69078125,43.15125 7.69078125,43.6521875 L7.69078125,43.9695312 C7.69078125,44.4704688 7.299375,44.8895312 6.7996875,44.9239062 L3.36578125,45.1595312 C3.09875,45.1782812 2.8434375,45.0871875 2.6475,44.9042187 L2.6475,44.9042188 Z" id="Shape"></path>
                    <path d="M12.5271875,53.2726563 C11.663125,51.77625 9.7703125,51.1990625 8.2184375,51.9585938 L5.12703125,53.4715625 C4.30859375,53.8720313 3.68671875,54.6015625 3.4209375,55.473125 C3.155,56.3446875 3.26390625,57.2970313 3.71953125,58.08625 L4.11375,58.7689063 C4.569375,59.5579688 5.3396875,60.1284375 6.2271875,60.3340625 C6.47171875,60.3907813 6.7203125,60.4185938 6.968125,60.4185938 C7.62,60.4185938 8.2659375,60.2259375 8.81375,59.8575 L11.6696875,57.9365625 C13.1035937,56.9721875 13.55,55.044375 12.6859375,53.5476563 L12.5271875,53.2726563 Z M10.3615625,55.9915625 L7.505625,57.9125 C7.283125,58.0620313 7.01703125,58.1110938 6.7559375,58.050625 C6.495,57.9901563 6.27734375,57.8290625 6.1434375,57.5970313 L5.74921875,56.914375 C5.6153125,56.6823437 5.58453125,56.4132812 5.66265625,56.1570313 C5.74078125,55.9007813 5.9165625,55.6946875 6.1571875,55.576875 L9.24875,54.0639062 C9.3828125,53.9982812 9.52546875,53.9671875 9.66671875,53.9671875 C9.9990625,53.9671875 10.3217188,54.1403125 10.4976563,54.4448437 L10.4976563,54.445 L10.65625,54.7195312 C10.9065625,55.1532812 10.7771875,55.7120312 10.3615625,55.9915625 L10.3615625,55.9915625 Z" id="Shape"></path>
                </g>
            </g>
        </g>
    </g>
</svg>