<?xml version="1.0" encoding="UTF-8"?>
<svg width="183px" height="262px" viewBox="0 0 183 262" version="1.1" xmlns="http://www.w3.org/2000/svg" xmlns:xlink="http://www.w3.org/1999/xlink">
    <!-- Generator: Sketch 54.1 (76490) - https://sketchapp.com -->
    <title>Group 5</title>
    <desc>Created with Sketch.</desc>
    <g id="Page-1" stroke="none" stroke-width="1" fill="none" fill-rule="evenodd" opacity="0.305">
        <g id="Artboard-Copy-14" transform="translate(-192.000000, 0.000000)" fill="#FFFFFF" fill-rule="nonzero">
            <g id="Home">
                <g id="Home-2">
                    <g>
                        <g id="Pattern-4-Clipped">
                            <g id="Pattern-4" transform="translate(113.000000, -80.000000)">
                                <g id="Illustration_Background" style="mix-blend-mode: soft-light;" transform="translate(203.372313, 209.957858) rotate(-17.000000) translate(-203.372313, -209.957858) translate(42.872313, 40.457858)">
                                    <g id="Group" transform="translate(160.626407, 169.235075) rotate(16.808692) translate(-160.626407, -169.235075) translate(35.126407, 30.735075)">
                                        <g id="Group-5" transform="translate(0.361553, 0.714891)">
                                            <path d="M197.353904,151.093055 C197.353904,113.436903 166.827562,82.9105613 129.171411,82.9105613 C91.5152593,82.9105613 60.9889172,113.436903 60.9889172,151.093055 C60.9889172,188.749206 91.5152593,219.275548 129.171411,219.275548 C166.812896,219.240165 197.318521,188.73454 197.353904,151.093055 L197.353904,151.093055 Z M129.170408,208.374612 C97.5443265,208.36852 71.9100704,182.727828 71.9119167,151.101747 C71.913763,119.475665 97.5510126,93.8379663 129.177094,93.8355663 C160.803176,93.8331663 186.444316,119.466974 186.450963,151.093055 C186.42663,182.718309 160.795662,208.349726 129.170408,208.374612 Z" id="Path_46-2" transform="translate(129.171411, 151.093055) rotate(-17.000000) translate(-129.171411, -151.093055) "></path>
                                            <path d="M129.174203,104.741107 C110.418441,104.736645 93.5071806,116.031892 86.3274125,133.359026 C79.1476444,150.686159 83.1135893,170.632202 96.3756294,183.894816 C109.637669,197.15743 129.58354,201.124238 146.910985,193.945219 C164.238429,186.766201 175.534407,169.855429 175.530757,151.099667 C175.500367,125.509923 154.763946,104.772605 129.174203,104.741107 Z M129.174203,186.552277 C114.833967,186.552277 101.905801,177.91382 96.4182175,164.665092 C90.9306341,151.416364 93.9643482,136.166544 104.104713,126.026753 C114.245078,115.886961 129.495069,112.85411 142.743487,118.342443 C155.991905,123.830776 164.62963,136.759431 164.628819,151.099667 C164.60671,170.671221 148.745758,186.531276 129.174203,186.552277 L129.174203,186.552277 Z" id="Path_47-2" transform="translate(129.162495, 151.109369) rotate(-17.000000) translate(-129.162495, -151.109369) "></path>
                                            <path d="M215.201018,23.5270891 L35.20421,23.5270891 C33.7574919,23.5241526 32.3691822,24.0975594 31.346196,25.1205456 C30.3232097,26.1435319 29.749803,27.5318416 29.7527394,28.9785597 L29.7527394,230.801307 C29.7499486,232.24799 30.3233613,233.636233 31.3462616,234.659256 L47.6996705,251.012664 C48.7226927,252.035565 50.110936,252.608977 51.5576189,252.606187 L198.825547,252.606187 C200.27223,252.608977 201.660473,252.035565 202.683495,251.012664 L219.058967,234.655244 C220.073654,233.62676 220.645606,232.242052 220.652489,230.797296 L220.652489,28.9785597 C220.651382,25.9682542 218.211324,23.528196 215.201018,23.5270891 Z M209.749548,34.4300302 L209.749548,62.2088631 C153.538734,68.1046732 96.8650241,68.0976148 40.6556806,62.1878033 L40.6556806,34.4300302 L209.749548,34.4300302 Z M196.58218,241.704248 L53.822045,241.704248 L42.9201067,230.801307 L89.7379699,230.801307 C92.7545495,230.801307 95.1999704,228.355886 95.1999704,225.339307 C95.1999704,222.322727 92.7545495,219.877306 89.7379699,219.877306 L40.6556806,219.877306 L40.6556806,73.1549266 C69.147046,76.0752699 97.7674232,77.558687 126.408035,77.5995399 C154.246995,77.5914613 182.066149,76.114892 209.749548,73.1759864 L209.749548,219.877306 L160.646199,219.877306 C157.629619,219.877306 155.184198,222.322727 155.184198,225.339307 C155.184198,228.355886 157.629619,230.801307 160.646199,230.801307 L207.485121,230.801307 L196.58218,241.704248 Z" id="Path_48-2" transform="translate(125.202608, 138.066637) rotate(-17.000000) translate(-125.202608, -138.066637) "></path>
                                            <path d="M86.1601994,60.8643992 L107.965079,60.8643992 C110.981658,60.8643992 113.427079,58.4189783 113.427079,55.4023987 C113.427079,52.3858191 110.981658,49.9403982 107.965079,49.9403982 L86.1601994,49.9403982 C83.1436199,49.9403982 80.698199,52.3858191 80.698199,55.4023987 C80.698199,58.4189783 83.1436199,60.8643992 86.1601994,60.8643992 Z" id="Path_49-2" transform="translate(97.062639, 55.402399) rotate(-17.000000) translate(-97.062639, -55.402399) "></path>
                                            <path d="M44.4408611,73.6231851 L66.2457406,73.6231851 C69.2623202,73.6231851 71.7077411,71.1777642 71.7077411,68.1611846 C71.7077411,65.1446051 69.2623202,62.6991841 66.2457406,62.6991841 L44.4408611,62.6991841 C41.4242815,62.6991841 38.9788606,65.1446051 38.9788606,68.1611846 C38.9788606,71.1777642 41.4242815,73.6231851 44.4408611,73.6231851 Z" id="Path_50-2" transform="translate(55.343301, 68.161185) rotate(-17.000000) translate(-55.343301, -68.161185) "></path>
                                            <path d="M127.88823,48.106699 L149.714169,48.106699 C152.730749,48.106699 155.176169,45.6612781 155.176169,42.6446985 C155.176169,39.628119 152.730749,37.1826981 149.714169,37.1826981 L127.88823,37.1826981 C124.87165,37.1826981 122.426229,39.628119 122.426229,42.6446985 C122.426229,45.6612781 124.87165,48.106699 127.88823,48.106699 Z" id="Path_51-2" transform="translate(138.801199, 42.644699) rotate(-17.000000) translate(-138.801199, -42.644699) "></path>
                                        </g>
                                    </g>
                                </g>
                            </g>
                        </g>
                    </g>
                </g>
            </g>
        </g>
    </g>
</svg>