<?xml version="1.0" encoding="UTF-8"?>
<svg width="47px" height="47px" viewBox="0 0 47 47" version="1.1" xmlns="http://www.w3.org/2000/svg" xmlns:xlink="http://www.w3.org/1999/xlink">
    <!-- Generator: Sketch 54.1 (76490) - https://sketchapp.com -->
    <title>Group 2</title>
    <desc>Created with Sketch.</desc>
    <g id="Page-1" stroke="none" stroke-width="1" fill="none" fill-rule="evenodd">
        <g id="Artboard-Copy-3" transform="translate(-111.000000, -107.000000)">
            <g id="Group-2" transform="translate(111.000000, 107.000000)">
                <circle id="Oval" fill="#FCA25E" cx="23.5" cy="23.5" r="23.5"></circle>
                <g id="Group" transform="translate(11.000000, 13.000000)" fill="#FFFFFF" fill-rule="nonzero">
                    <path d="M21.9661017,3.47671088 L19.3627119,3.47671088 L17.9254237,1.30376658 C17.3830508,0.488912467 16.4338983,-4.61852778e-14 15.4576271,-4.61852778e-14 L9.49152542,-4.61852778e-14 C8.51525424,-4.61852778e-14 7.56610169,0.488912467 7.02372881,1.30376658 L5.58644068,3.47671088 L2.98305085,3.47671088 C1.32881356,3.47671088 -5.32907052e-14,4.80763926 -5.32907052e-14,6.46450928 L-5.32907052e-14,17.0032891 C-5.32907052e-14,18.6601592 1.32881356,19.9910875 2.98305085,19.9910875 L21.9661017,19.9910875 C23.620339,19.9910875 24.9491525,18.6601592 24.9491525,17.0032891 L24.9491525,6.46450928 C24.9491525,4.80763926 23.620339,3.47671088 21.9661017,3.47671088 Z M12.4745763,17.5465252 C8.75932203,17.5465252 5.74915254,14.531565 5.74915254,10.8103979 C5.74915254,7.08923077 8.75932203,4.10143236 12.4745763,4.10143236 C16.1898305,4.10143236 19.2,7.11639257 19.2,10.8375597 C19.2,14.531565 16.1898305,17.5465252 12.4745763,17.5465252 Z M21.5864407,7.68679045 C21.559322,7.68679045 21.5322034,7.68679045 21.4779661,7.68679045 L20.3932203,7.68679045 C19.9050847,7.65962865 19.5254237,7.25220159 19.5525424,6.76328912 C19.579661,6.30153846 19.9322034,5.94843501 20.3932203,5.92127321 L21.4779661,5.92127321 C21.9661017,5.89411141 22.3728814,6.27437666 22.4,6.76328912 C22.4271186,7.25220159 22.0745763,7.65962865 21.5864407,7.68679045 Z M12.4745763,7.08923077 C14.5355932,7.08923077 16.2169492,8.7461008 16.2169492,10.8103979 C16.2169492,12.874695 14.5355932,14.5587268 12.4745763,14.5587268 C10.4135593,14.5587268 8.73220339,12.9018568 8.73220339,10.8375597 C8.73220339,8.7732626 10.4135593,7.08923077 12.4745763,7.08923077 Z" id="Shape"></path>
                </g>
            </g>
        </g>
    </g>
</svg>