<?xml version="1.0" encoding="UTF-8"?>
<svg width="39px" height="30px" viewBox="0 0 39 30" version="1.1" xmlns="http://www.w3.org/2000/svg" xmlns:xlink="http://www.w3.org/1999/xlink">
    <!-- Generator: Sketch 54.1 (76490) - https://sketchapp.com -->
    <title>Shape</title>
    <desc>Created with Sketch.</desc>
    <g id="Page-1" stroke="none" stroke-width="1" fill="none" fill-rule="evenodd">
        <g id="Artboard-Copy-8" transform="translate(-158.000000, -254.000000)" fill="#FFFFFF" fill-rule="nonzero">
            <g id="Group-2" transform="translate(115.000000, 215.000000)">
                <path d="M76.8884746,44.2233422 L72.931322,44.2233422 L70.7466441,40.9639257 C69.9222373,39.7416446 68.4795254,39.0082759 66.9955932,39.0082759 L57.9271186,39.0082759 C56.4431864,39.0082759 55.0004746,39.7416446 54.1760678,40.9639257 L51.9913898,44.2233422 L48.0342373,44.2233422 C45.5197966,44.2233422 43.5,46.2197347 43.5,48.7050398 L43.5,64.5132095 C43.5,66.9985146 45.5197966,68.9949072 48.0342373,68.9949072 L76.8884746,68.9949072 C79.4029153,68.9949072 81.4227119,66.9985146 81.4227119,64.5132095 L81.4227119,48.7050398 C81.4227119,46.2197347 79.4029153,44.2233422 76.8884746,44.2233422 Z M62.4613559,65.3280637 C56.8141695,65.3280637 52.2387119,60.8056233 52.2387119,55.2238727 C52.2387119,49.642122 56.8141695,45.1604244 62.4613559,45.1604244 C68.1085424,45.1604244 72.684,49.6828647 72.684,55.2646154 C72.684,60.8056233 68.1085424,65.3280637 62.4613559,65.3280637 Z M76.3113898,50.5384615 C76.2701695,50.5384615 76.2289492,50.5384615 76.1465085,50.5384615 L74.4976949,50.5384615 C73.7557288,50.4977188 73.1786441,49.8865782 73.2198644,49.1532095 C73.2610847,48.4605836 73.7969492,47.9309284 74.4976949,47.8901857 L76.1465085,47.8901857 C76.8884746,47.849443 77.5067797,48.4198408 77.548,49.1532095 C77.5892203,49.8865782 77.0533559,50.4977188 76.3113898,50.5384615 Z M62.4613559,49.642122 C65.5941017,49.642122 68.1497627,52.1274271 68.1497627,55.2238727 C68.1497627,58.3203183 65.5941017,60.846366 62.4613559,60.846366 C59.3286102,60.846366 56.7729492,58.361061 56.7729492,55.2646154 C56.7729492,52.1681698 59.3286102,49.642122 62.4613559,49.642122 Z" id="Shape"></path>
            </g>
        </g>
    </g>
</svg>