<?xml version="1.0" encoding="UTF-8"?>
<svg width="23px" height="22px" viewBox="0 0 23 22" version="1.1" xmlns="http://www.w3.org/2000/svg" xmlns:xlink="http://www.w3.org/1999/xlink">
    <!-- Generator: Sketch 54.1 (76490) - https://sketchapp.com -->
    <title>icons_comment-dark</title>
    <desc>Created with Sketch.</desc>
    <g id="Page-1" stroke="none" stroke-width="1" fill="none" fill-rule="evenodd">
        <g id="Artboard-Copy-14" transform="translate(-111.000000, -750.000000)">
            <g id="Home">
                <g id="Component_47_1">
                    <g transform="translate(0.000000, 703.000000)">
                        <g id="icons_comment-dark" transform="translate(109.000000, 44.000000)">
                            <rect id="bg-5" x="0" y="0" width="28" height="28"></rect>
                            <path d="M2.943,22.3 C2.71011402,22.9647366 2.88284516,23.7041888 3.38611811,24.1969635 C3.88939106,24.6897382 4.63231976,24.8468452 5.292,24.6 L8.662,23.8 C10.2435035,24.6017068 11.993948,25.0131726 13.767,25 C16.7177266,25.0392168 19.5623187,23.9003633 21.670734,21.8356817 C23.7791493,19.7710001 24.9773682,16.9509004 25,14 C24.9773682,11.0490996 23.7791493,8.22899986 21.670734,6.16431827 C19.5623187,4.09963668 16.7177266,2.96078322 13.767,3 C10.8164455,2.9610517 7.97211141,4.10002416 5.86391345,6.16467671 C3.75571549,8.22932927 2.55763396,11.0492753 2.535,14 C2.52864947,15.7576622 2.94901609,17.4906021 3.76,19.05 L2.943,22.3 Z M5.853,19.15 C5.92129812,18.8966861 5.88528261,18.6265698 5.753,18.4 C4.98523819,17.0604737 4.57991265,15.5439496 4.577,14 C4.68133606,8.99921048 8.76512217,4.99973941 13.767,4.99973941 C18.7688778,4.99973941 22.8526639,8.99921048 22.957,14 C22.8894966,19.0166034 18.7839189,23.0372998 13.767,23 C12.1966339,22.9991842 10.6516523,22.6037404 9.274,21.85 C9.04207749,21.7162674 8.76648174,21.6802888 8.508,21.75 L4.935,22.6 L5.854,19.15 L5.853,19.15 Z M18.363,13 C18.9152847,13 19.363,12.5522847 19.363,12 C19.363,11.4477153 18.9152847,11 18.363,11 L9.173,11 C8.62071525,11 8.173,11.4477153 8.173,12 C8.173,12.5522847 8.62071525,13 9.173,13 L18.363,13 Z M18.363,17 C18.9152847,17 19.363,16.5522847 19.363,16 C19.363,15.4477153 18.9152847,15 18.363,15 L12.235,15 C11.6827153,15 11.235,15.4477153 11.235,16 C11.235,16.5522847 11.6827153,17 12.235,17 L18.363,17 Z" id="path" fill="#C8C9CB" fill-rule="nonzero"></path>
                        </g>
                    </g>
                </g>
            </g>
        </g>
    </g>
</svg>