<svg xmlns="http://www.w3.org/2000/svg" xmlns:xlink="http://www.w3.org/1999/xlink" width="136.639" height="253.988" viewBox="0 0 136.639 253.988">
  <defs>
    <linearGradient id="linear-gradient" y1="0.5" x2="1" y2="0.5" gradientUnits="objectBoundingBox">
      <stop offset="0.01" stop-color="#fff"/>
      <stop offset="0.13" stop-color="#fff" stop-opacity="0.69"/>
      <stop offset="1" stop-color="#fff" stop-opacity="0"/>
    </linearGradient>
    <linearGradient id="linear-gradient-2" x1="0.356" y1="0.319" x2="1.068" y2="1.298" xlink:href="#linear-gradient"/>
  </defs>
  <g id="Group_65" data-name="Group 65" transform="translate(-250.59 0.349)">
    <path id="Path_63" data-name="Path 63" d="M64.11,229.254l62.324,97.089s38.069-2.221,51.856-20.02L158.45,184.34Z" transform="translate(208.939 -72.703)" fill="#fff" opacity="0.103"/>
    <path id="Path_64" data-name="Path 64" d="M178.275,306.326a37.833,37.833,0,0,1-12.5,9.9c-16.66,8.788-39.346,10.121-39.346,10.121L64.11,229.271l41.873-19.951L158.45,184.33Z" transform="translate(208.939 -72.707)" fill="rgba(255,255,255,0.69)" opacity="0.103"/>
    <path id="Path_65" data-name="Path 65" d="M167,305.264a27.939,27.939,0,0,1-1.222,3.971c-16.66,8.788-39.346,10.121-39.346,10.121L64.11,222.281l41.873-19.951c13.384,4.54.916,14.62-.167,23.769a16.841,16.841,0,0,0,1.236,7.108,507.2,507.2,0,0,0,20.923,52.841c2.041,4.443,4.262,8.983,8.025,12.079C144.3,304.958,156.6,302.5,167,305.264Z" transform="translate(208.939 -65.716)" fill="#fff" opacity="0.103"/>
    <path id="Path_66" data-name="Path 66" d="M51.636,218.989a19.148,19.148,0,0,1-1.916,2.777c-2.971,4.443-1.652,10.357-.222,15.508a157.732,157.732,0,0,0,68.544-12.329,134.463,134.463,0,0,0,54.674-42.789,2.18,2.18,0,0,0-.111-3.415l-5.553-6.317a2.11,2.11,0,0,0-1.166-.833,3.11,3.11,0,0,0-1.388.305c-2.346.777-4.8-.861-6.539-2.638s-3.457-3.887-5.887-4.359a10.274,10.274,0,0,0-4.943.666c-26.06,8.08-52.078,16.869-76.055,29.892a89.619,89.619,0,0,1-9.3,4.679,29.9,29.9,0,0,1-5.109,1.611c-1.138.236-4,0-4.859.666-1.652,1.388.278,4.054.6,5.776a22.02,22.02,0,0,1-.764,10.8Z" transform="translate(202.656 -80.279)" fill="#fff" opacity="0.103"/>
    <path id="Path_67" data-name="Path 67" d="M51.636,218.989a19.148,19.148,0,0,1-1.916,2.777c-2.971,4.443-1.652,10.357-.222,15.508a157.732,157.732,0,0,0,68.544-12.329,134.463,134.463,0,0,0,54.674-42.789,2.18,2.18,0,0,0-.111-3.415l-5.553-6.317a2.11,2.11,0,0,0-1.166-.833,3.11,3.11,0,0,0-1.388.305c-2.346.777-4.8-.861-6.539-2.638s-3.457-3.887-5.887-4.359a10.274,10.274,0,0,0-4.943.666c-26.06,8.08-52.078,16.869-76.055,29.892a89.619,89.619,0,0,1-9.3,4.679,29.9,29.9,0,0,1-5.109,1.611c-1.138.236-4,0-4.859.666-1.652,1.388.278,4.054.6,5.776a22.02,22.02,0,0,1-.764,10.8Z" transform="translate(202.656 -80.279)" opacity="0.103" fill="url(#linear-gradient)"/>
    <path id="Path_134" data-name="Path 134" d="M52.985,203.321a6.845,6.845,0,0,0-2.124,3.985c-.1,2.61,2.582,4.373,5.012,5.3,14.508,5.553,30.794.75,45.191-5.081,9.844-3.985,66.919-24.435,50.328-41.457-13.967-14.328-50.578,2.624-63.865,9.83a125.869,125.869,0,0,0-34.543,27.42Z" transform="translate(203.793 -81.965)" fill="#fff" opacity="0.103"/>
    <path id="Path_135" data-name="Path 135" d="M61.763,197.538a5.054,5.054,0,0,0-1.583,2.985c-.083,1.958,1.93,3.277,3.749,3.985,10.885,4.165,23.1.555,33.918-3.818,7.372-3,50.189-18.34,37.75-31.1-10.482-10.746-37.944,1.971-47.926,7.372a94.41,94.41,0,0,0-25.907,20.576Z" transform="translate(207.412 -80.056)" fill="#fff" opacity="0.103"/>
    <path id="Path_136" data-name="Path 136" d="M61.763,197.538a5.054,5.054,0,0,0-1.583,2.985c-.083,1.958,1.93,3.277,3.749,3.985,10.885,4.165,23.1.555,33.918-3.818,7.372-3,50.189-18.34,37.75-31.1-10.482-10.746-37.944,1.971-47.926,7.372a94.41,94.41,0,0,0-25.907,20.576Z" transform="translate(207.412 -80.056)" opacity="0.103" fill="url(#linear-gradient-2)"/>
    <path id="Path_137" data-name="Path 137" d="M99.878,196.34c1.944,3.971,7.553,17.743-3.485,14.856a5,5,0,0,1-2.263-1.388,14.148,14.148,0,0,1-2.374-3.707q-6.039-12.2-12.107-24.408c-4.165-8.566-8.636-17.341-15.619-23.88,1.513.5,2.777-1.388,2.777-2.985s-.75-3.165-.444-4.72a7.608,7.608,0,0,1,2.041-3.374,553.544,553.544,0,0,1,41.207-41.9c.416-.389.819-.777,1.25-1.152l6.636,6.012q-13.786,15.272-27.6,30.419c-3.915,4.318-8.025,9-8.941,14.772-1.25,7.886,3.721,15.272,8.039,21.936A187.878,187.878,0,0,1,99.878,196.34Z" transform="translate(208.908 -104.029)" fill="#fff" opacity="0.103"/>
    <path id="Path_138" data-name="Path 138" d="M99.878,196.34c1.944,3.971,7.553,17.743-3.485,14.856a5,5,0,0,1-2.263-1.388,14.148,14.148,0,0,1-2.374-3.707q-6.039-12.2-12.107-24.408c-4.165-8.566-8.636-17.341-15.619-23.88,1.513.5,2.777-1.388,2.777-2.985s-.75-3.165-.444-4.72a7.608,7.608,0,0,1,2.041-3.374,553.544,553.544,0,0,1,41.207-41.9c.416-.389.819-.777,1.25-1.152l6.636,6.012q-13.786,15.272-27.6,30.419c-3.915,4.318-8.025,9-8.941,14.772-1.25,7.886,3.721,15.272,8.039,21.936A187.878,187.878,0,0,1,99.878,196.34Z" transform="translate(208.908 -104.029)" fill="#fff" opacity="0.103"/>
    <path id="Path_139" data-name="Path 139" d="M95.435,194.268c1.791,3.693,6.734,15.772-1.305,15.272a14.148,14.148,0,0,1-2.374-3.762q-6.039-12.2-12.107-24.408c-4.165-8.566-8.636-17.341-15.619-23.88,1.513.5,2.777-1.388,2.777-2.985s-.75-3.165-.444-4.72a7.608,7.608,0,0,1,2.041-3.374,553.544,553.544,0,0,1,41.207-41.9l3.429,3.124q-13.786,15.175-27.587,30.391c-3.929,4.332-8.039,9.024-8.941,14.8-1.25,7.872,3.707,15.272,8.025,21.936a189.236,189.236,0,0,1,10.9,19.507Z" transform="translate(208.908 -103.707)" fill="#fff" opacity="0.103"/>
  </g>
</svg>
