<svg id="undraw_having_fun_iais_1_" data-name="undraw_having_fun_iais (1)" xmlns="http://www.w3.org/2000/svg" width="380.845" height="239.171" viewBox="0 0 380.845 239.171">
  <path id="Path_10" data-name="Path 10" d="M413.2,383.5c-3.821,9.189-11.816,17.49-20.4,25.35q-11.316,10.367-24.21,20.036-3.573,2.684-7.26,5.3l-1.708,1.2q-2.271,1.607-4.62,3.184l-.188.128q-2.278,1.55-4.6,3.07a125.975,125.975,0,0,1-16.309,9.35c-2.013.933-4.09,1.8-6.24,2.58q-1.745.634-3.563,1.188c-1.986.6-4.026,1.131-6.156,1.563-.356.074-.715.144-1.074.211-2.181.409-4.388.708-6.619.913a101.783,101.783,0,0,1-24.81-1.08c-4.093-.641-8.122-1.466-12.021-2.406-.48-.114-.956-.231-1.436-.336-13.276-3.321-25.74-7.831-39.109-11q-6.911-1.641-14.091-2.785-3.5-.557-7.046-1.007c-5.559-.691-11.189-1.154-16.842-1.389a102.993,102.993,0,0,0-22.747,1.141q-1.449.265-2.862.6-1.792.419-3.516.956a62.6,62.6,0,0,0-9.022,3.714c-.574.282-1.141.567-1.708.856h0c-1.778.906-3.533,1.832-5.314,2.731a67.079,67.079,0,0,1-9.978,4.234,52.831,52.831,0,0,1-5.73,1.463,84.44,84.44,0,0,1-16.05,1.459c-2.64,0-5.284-.057-7.9-.195H110c-.892-.047-1.788-.1-2.684-.168-4.08-.278-8.146-.708-12.152-1.295-13.725-2.013-26.743-5.818-37.214-11.622-14.222-7.878-23.253-19.623-21.9-31.359.973-8.455,7.015-16.305,12.749-23.992,10.666-14.312,20.657-28.95,25.914-44.38,4.264-12.524,5.536-25.766,15.349-37.022a51.444,51.444,0,0,1,11.843-9.773,75.619,75.619,0,0,1,10.964-5.542,94.772,94.772,0,0,1,13.215-4.311,105.172,105.172,0,0,1,11.85-2.228c2.167-.282,4.361-.5,6.569-.648q2.55-.178,5.123-.225h.265q1.574-.03,3.147,0a146.644,146.644,0,0,1,22.814,2.144c4.717.788,9.394,1.755,13.974,2.818q4.1.949,8.126,1.99c.819.211,1.637.426,2.446.644,19.1,5.116,35.9,12.182,54.3,17.979.094.03.185.06.278.084h0a113.346,113.346,0,0,0,11.488,2.885q4.273.856,8.723,1.5c4.536.671,9.169,1.2,13.836,1.657l1.03.1c6.848.671,13.755,1.171,20.465,1.755,2.382.208,4.744.423,7.072.671q2.214.221,4.388.47c1.04.121,2.083.242,3.127.369s2.147.262,3.221.4c.7.087,1.392.178,2.09.275,4.227.56,8.445,1.188,12.615,1.906,2.536.436,5.059.906,7.552,1.412q2.707.55,5.368,1.161,1.973.446,3.912.939c10.5,2.64,20.335,6.1,28.806,10.776C410.67,346.01,420.514,365.929,413.2,383.5Z" transform="translate(-34.746 -218.749)" fill="#fff" opacity="0.1"/>
  <circle id="Ellipse_6" data-name="Ellipse 6" cx="7.257" cy="7.257" r="7.257" transform="translate(76.279 15.815)" fill="#fff" opacity="0.1"/>
  <circle id="Ellipse_7" data-name="Ellipse 7" cx="7.257" cy="7.257" r="7.257" transform="translate(224.607 0)" fill="#fff" opacity="0.1"/>
  <circle id="Ellipse_8" data-name="Ellipse 8" cx="7.257" cy="7.257" r="7.257" transform="translate(312.558 16.252)" fill="#fff" opacity="0.1"/>
  <circle id="Ellipse_9" data-name="Ellipse 9" cx="12.162" cy="12.162" r="12.162" transform="translate(0 28.467)" fill="#fff" opacity="0.1"/>
  <circle id="Ellipse_10" data-name="Ellipse 10" cx="12.162" cy="12.162" r="12.162" transform="translate(11.659 88.522)" fill="#fff" opacity="0.1"/>
  <circle id="Ellipse_11" data-name="Ellipse 11" cx="12.162" cy="12.162" r="12.162" transform="translate(338.073 66.416)" fill="#fff" opacity="0.1"/>
  <path id="Path_11" data-name="Path 11" d="M357.037,313.6a13.083,13.083,0,0,1-.178,3.053c-.671,3.117-3.509,5.257-6.257,6.881s-5.767,3.16-7.4,5.9c-1.969,3.311-1.342,7.763.97,10.857a16.006,16.006,0,0,0,9.746,5.7,22.566,22.566,0,0,0,19.566-5.338,21.337,21.337,0,0,0,6.479-19.124c-2.8.393-5.291-2.077-6.2-4.754s-.718-5.579-1.07-8.387a2.88,2.88,0,0,0-.416-1.342,3.014,3.014,0,0,0-1.735-.943c-3.234-.889-8.676-2.835-12.028-2.09C355.5,304.712,356.987,311.066,357.037,313.6Z" transform="translate(-238.153 -233.301)" fill="#be6f72"/>
  <path id="Path_12" data-name="Path 12" d="M357.037,313.6a13.083,13.083,0,0,1-.178,3.053c-.671,3.117-3.509,5.257-6.257,6.881s-5.767,3.16-7.4,5.9c-1.969,3.311-1.342,7.763.97,10.857a16.006,16.006,0,0,0,9.746,5.7,22.566,22.566,0,0,0,19.566-5.338,21.337,21.337,0,0,0,6.479-19.124c-2.8.393-5.291-2.077-6.2-4.754s-.718-5.579-1.07-8.387a2.88,2.88,0,0,0-.416-1.342,3.014,3.014,0,0,0-1.735-.943c-3.234-.889-8.676-2.835-12.028-2.09C355.5,304.712,356.987,311.066,357.037,313.6Z" transform="translate(-238.153 -233.301)" opacity="0.1"/>
  <path id="Path_13" data-name="Path 13" d="M343.7,748.381a67.082,67.082,0,0,1-9.978,4.234,52.818,52.818,0,0,1-5.73,1.463,36.067,36.067,0,0,1,.419-7.716,41.081,41.081,0,0,0,.748-4.405,11.555,11.555,0,0,0-1.325-6.187c3.737-.51,7.287-1.342,11.041-1.1l.238.017a4.188,4.188,0,0,1,1.308.245,3.533,3.533,0,0,1,1.419,1.248,8.587,8.587,0,0,1,.533.822,13.084,13.084,0,0,1,1.547,6.123A40.73,40.73,0,0,1,343.7,748.381Z" transform="translate(-228.72 -519.55)" fill="#be6f72"/>
  <path id="Path_14" data-name="Path 14" d="M408.052,749.316q-1.792.419-3.516.956a62.6,62.6,0,0,0-9.022,3.714,13.318,13.318,0,0,1-.275-2.778,15.513,15.513,0,0,1,11.86-2.439,1.566,1.566,0,0,1,.752.3A1,1,0,0,1,408.052,749.316Z" transform="translate(-273.513 -528.745)" fill="#be6f72"/>
  <path id="Path_15" data-name="Path 15" d="M354.576,621.227a25.762,25.762,0,0,1-1.342,6.458c-.842,2.214-2.211,4.361-2.036,6.727.077,1.027.426,2.14.476,3.157q-1.449.265-2.862.6-1.792.419-3.516.956a62.607,62.607,0,0,0-9.022,3.714c-.574.282-1.141.567-1.708.856h0c-.235-.03-.466-.067-.7-.111a6.864,6.864,0,0,1-4.392-2.4,3.851,3.851,0,0,1-.507-1.006c-.547-1.634.023-3.67-1.114-4.965l-.054.047-.04.027a11.268,11.268,0,0,1-2.04,1.469h0a13.672,13.672,0,0,1-11.071,1.067,12.132,12.132,0,0,1-2.077-.933c-1.537-.876-3.02-2.349-2.9-4.107.067-.98.627-1.919.476-2.889a6.045,6.045,0,0,0-.909-1.885c-2.245-4.026.433-9.2-.976-13.578-.034-.1-.07-.208-.107-.309-.1-.285-.221-.56-.336-.835-.289-.641-.611-1.271-.866-1.929a11.234,11.234,0,0,1-.5-1.7,21.291,21.291,0,0,1-.335-5.106,53.415,53.415,0,0,1,1.953-13.46c.2-.772.433-1.862.735-3.05h0a23.349,23.349,0,0,1,1.188-3.664c.671-1.543,1.584-2.775,2.832-3.066,1.879-.44,4.751.49,6.656.718l7.532.9,15.061,1.8c2.6.312,5.331.671,7.475,2.134.141.1.279.2.416.305a8.5,8.5,0,0,1,1.51,1.536c.154.2.3.406.443.617a13.966,13.966,0,0,1,1.241,2.369c1.869,4.489,1.912,9.5,1.926,14.359A146.712,146.712,0,0,1,354.576,621.227Z" transform="translate(-214.27 -417.592)" fill="#3f3d56"/>
  <path id="Path_16" data-name="Path 16" d="M358.507,695.394c-.453-1.745-1.409-4.271-1.55-4.959a62.919,62.919,0,0,1-1.027-6.985c-.372-4.18-1.043-10.065.433-14.041,1.386.738,2.6,2.828,3.244,4.254,2.322,5.17-.292,11.518,1.889,16.748a2.757,2.757,0,0,1,.3,1.007,2.436,2.436,0,0,1-.463,1.235l-.735,1.221Z" transform="translate(-247.074 -476.212)" opacity="0.1"/>
  <path id="Path_17" data-name="Path 17" d="M488.014,206.976c2.469-4.026,5.851-7.985,5.64-12.692a25.145,25.145,0,0,0-1.047-4.962,31.657,31.657,0,0,1-.232-14.524,16.4,16.4,0,0,1,11.863,2.657,6.77,6.77,0,0,1,2.62,2.946,8.525,8.525,0,0,1,.292,3.654c-.185,2.822-.436,5.831-2.174,8.052-.54.694-1.2,1.282-1.731,1.983a12.841,12.841,0,0,0-1.657,3.432l-5.7,15.517c-2.879,7.821-6,16-12.34,21.412-.154.131-4.7-6.321-5.073-6.968-1.52-2.654-.856-3.774.983-6C483.082,217.1,485.052,211.8,488.014,206.976Z" transform="translate(-328.263 -147.405)" fill="#be6f72"/>
  <path id="Path_18" data-name="Path 18" d="M270.481,665.33a25.773,25.773,0,0,1-.292,3.459c-.06.423-.131.842-.215,1.262-1.144,5.972-3.992,11.652-5.985,17.469a101.515,101.515,0,0,0-4.7,21.969c-2.64,0-5.284-.057-7.9-.195h-.081c-.892-.047-1.788-.1-2.684-.168.809-7.113-.671-14.574.775-21.693.584-2.865,1.58-5.646,2.181-8.5a24.049,24.049,0,0,0,.419-2.543,6.821,6.821,0,0,1,.493-2.385,1.755,1.755,0,0,1,.114-.2,5.748,5.748,0,0,1,1.181-1.342,29.466,29.466,0,0,1,14.447-6.888C269,665.468,269.743,665.38,270.481,665.33Z" transform="translate(-176.092 -473.501)" fill="#fbbebe"/>
  <path id="Path_19" data-name="Path 19" d="M270.481,665.33a25.773,25.773,0,0,1-.292,3.459c-.06.423-.131.842-.215,1.262-1.144,5.972-3.992,11.652-5.985,17.469a101.515,101.515,0,0,0-4.7,21.969c-2.64,0-5.284-.057-7.9-.195h-.081c-.892-.047-1.788-.1-2.684-.168.809-7.113-.671-14.574.775-21.693.584-2.865,1.58-5.646,2.181-8.5a24.049,24.049,0,0,0,.419-2.543,6.821,6.821,0,0,1,.493-2.385,1.755,1.755,0,0,1,.114-.2,5.748,5.748,0,0,1,1.181-1.342,29.466,29.466,0,0,1,14.447-6.888C269,665.468,269.743,665.38,270.481,665.33Z" transform="translate(-176.092 -473.501)" opacity="0.1"/>
  <path id="Path_20" data-name="Path 20" d="M217.236,687.676a52.57,52.57,0,0,1-.46,5.573c-.9,7.552-1.064,15.433-1.678,23.1-.892-.047-1.788-.1-2.684-.168-4.08-.278-8.146-.708-12.152-1.295q.463-2.59.933-5.18a28.049,28.049,0,0,0,.654-6.4,37.466,37.466,0,0,0-1.08-6c-.923-4.261-1.439-8.857-2.959-12.876a16.775,16.775,0,0,0-3.711-6.039c6.287-2.469,12.33-2.61,19.083-2.349a2.419,2.419,0,0,1,1.369.336,2.315,2.315,0,0,1,.688,1.04,26.023,26.023,0,0,1,1.889,7.656A25.118,25.118,0,0,1,217.236,687.676Z" transform="translate(-139.856 -480.558)" fill="#fbbebe"/>
  <circle id="Ellipse_12" data-name="Ellipse 12" cx="13.084" cy="13.084" r="13.084" transform="translate(114.939 52.402)" fill="#be6f72"/>
  <path id="Path_21" data-name="Path 21" d="M350.519,365.271c1.677-2.862,3.147-6.435,6.374-7.23,1.822-.453,3.717.164,5.492.772a2.684,2.684,0,0,1,1.342.778,2.637,2.637,0,0,1,.406,1.389,90.939,90.939,0,0,1-.057,17.782c-.426,4.184-1.144,8.347-1.272,12.551-.178,5.828.782,11.655.466,17.476a80.342,80.342,0,0,1-2.164,13.058l-4.026,18.05a3.078,3.078,0,0,1-.648,1.527,3.019,3.019,0,0,1-1.188.671,44.205,44.205,0,0,1-35.774-2.8,10.854,10.854,0,0,1-3.848-3.083,9.034,9.034,0,0,1-1.03-6.8c.436-2.315,1.379-4.5,2.013-6.77a52.107,52.107,0,0,0,1.433-10.85,85.974,85.974,0,0,0,.077-14.427c-.352-3.3-1.087-6.546-1.641-9.817a108.269,108.269,0,0,1-1.416-14.906c-.084-2.983.054-6.294,2.117-8.445A9.726,9.726,0,0,1,320.891,362a10.976,10.976,0,0,1,7.166-.57c2.315.772,4.18,3.2,3.633,5.579-.252,1.1-.966,2.07-1.141,3.191a4.6,4.6,0,0,0,1.677,3.979C338.274,379.644,347.5,370.451,350.519,365.271Z" transform="translate(-219.775 -269.204)" fill="#e3e8f4"/>
  <path id="Path_22" data-name="Path 22" d="M403.175,315.63a9.894,9.894,0,0,1,5.734-.335c1.211.289,2.52.8,3.637.258.406-.195.741-.513,1.151-.694,1.107-.486,2.543.111,3.523-.6a3.468,3.468,0,0,0,1.027-2,17.9,17.9,0,0,1,5.915-8.965c-.352,2.573-.607,5.5,1.094,7.468a7.456,7.456,0,0,0,2.962,1.889,8.86,8.86,0,0,0,4.982.7,4.32,4.32,0,0,0,3.493-3.285c-.057,2.526-2.463,4.291-3.137,6.73-.255.913-.232,1.882-.409,2.815-.453,2.382-2.154,4.294-3.64,6.213a44.206,44.206,0,0,0-8.79,21.21,10.235,10.235,0,0,1-.57,2.684,16.88,16.88,0,0,1-1.114,1.919c-2.459,4.154-1.7,9.394-.866,14.138a202.706,202.706,0,0,0,4.721,21.955,7.624,7.624,0,0,0,1.694,3.432c-.292,2.929-3.248,4.264-5.9,5.529a28.966,28.966,0,0,0-7.18,4.861,5.658,5.658,0,0,0-1.8,2.5c-.262.943-.074,1.979-.409,2.9s-1.678,1.573-2.268.8c-.738-2.761.523-5.65.466-8.508-.04-1.929-.671-3.8-.762-5.734a18.347,18.347,0,0,1,1.241-6.4c1.906-5.774,4.207-11.494,4.868-17.537s-.574-12.642-4.861-16.953c-5.089-5.14-7.914-12.108-13.37-16.829-.866-.748-1.845-1.678-1.7-2.812a3.13,3.13,0,0,1,.641-1.362c1.872-2.644,4.361-4.8,6.375-7.331S403.54,318.85,403.175,315.63Z" transform="translate(-271.951 -232.932)" fill="#3f3d56"/>
  <path id="Path_23" data-name="Path 23" d="M326.084,354.72a9.8,9.8,0,0,1-.956,1.087,3.154,3.154,0,0,1-1.506.466,48.7,48.7,0,0,1-5.962.533,18.4,18.4,0,0,0-5.032.312,8.982,8.982,0,0,0-5.177,4.462,22.131,22.131,0,0,0-2.094,6.666,89.157,89.157,0,0,0-1.526,15.4,40.491,40.491,0,0,0,7.331-7.609c1.61-2.184,3.07-4.6,5.368-6.059,1.057-.671,2.245-1.114,3.308-1.768,2.218-1.366,3.754-3.573,5.23-5.7,1.087-1.58,4.231-4.667,4.479-6.559C329.757,354.136,327.258,353.253,326.084,354.72Z" transform="translate(-212.772 -266.611)" fill="#3f3d56"/>
  <path id="Path_24" data-name="Path 24" d="M374.75,239.836a10.6,10.6,0,0,1,1.188.829c2.278,1.59,5.328,1.3,8.082.933a6.066,6.066,0,0,0,2.439-.671,3.813,3.813,0,0,0,1.6-3.56,7.087,7.087,0,0,0-1.641-3.69,13.276,13.276,0,0,0-9.176-5.006,5.9,5.9,0,0,0-2.748.292,22.136,22.136,0,0,0-2.9,1.979c-2.949,1.812-7.492,1.007-9.394,3.9-1.392,2.134-.4,5.032-1.057,7.485-.49,1.832-1.9,3.5-1.631,5.368a8.659,8.659,0,0,0,1.285,2.785,12.306,12.306,0,0,1,1.54,6.787c1.292.913,3.093-.507,3.452-2.043s-.054-3.174.252-4.724c.54-2.721,2.942-4.717,4.026-7.213C370.845,241.5,372.113,238.477,374.75,239.836Z" transform="translate(-249.75 -183.308)" fill="#3f3d56"/>
  <path id="Path_25" data-name="Path 25" d="M281.873,329.735a2.529,2.529,0,0,0,.174,1.8c.671,1.007,2.208.644,3.415.8a4.652,4.652,0,0,1,3.637,3.885,12.771,12.771,0,0,1-.547,5.616q-1.617,6.25-3.852,12.323c-4.006-.473-8.223-2.013-10.35-5.432-1.932-3.11-1.735-7.072-2.962-10.521a26.3,26.3,0,0,0-3.939-6.616c2.459.309,4.217-2.5,4.361-4.979s-.634-4.989-.1-7.408c.124-.574,9.817,1.235,10.759,1.889C285.191,322.978,282.3,327.112,281.873,329.735Z" transform="translate(-188.597 -243.425)" fill="#fbbebe"/>
  <path id="Path_26" data-name="Path 26" d="M281.873,329.735a2.529,2.529,0,0,0,.174,1.8c.671,1.007,2.208.644,3.415.8a4.652,4.652,0,0,1,3.637,3.885,12.771,12.771,0,0,1-.547,5.616q-1.617,6.25-3.852,12.323c-4.006-.473-8.223-2.013-10.35-5.432-1.932-3.11-1.735-7.072-2.962-10.521a26.3,26.3,0,0,0-3.939-6.616c2.459.309,4.217-2.5,4.361-4.979s-.634-4.989-.1-7.408c.124-.574,9.817,1.235,10.759,1.889C285.191,322.978,282.3,327.112,281.873,329.735Z" transform="translate(-188.597 -243.425)" opacity="0.1"/>
  <circle id="Ellipse_13" data-name="Ellipse 13" cx="13.084" cy="13.084" r="13.084" transform="translate(78.034 56.092)" fill="#fbbebe"/>
  <path id="Path_27" data-name="Path 27" d="M228.189,278.862c.476-.745-.335-1.785.037-2.587.221-.483.782-.691,1.215-1.007a4.526,4.526,0,0,0,1.265-1.641A19.07,19.07,0,0,0,232.45,260.9c-.309-1.449-.584-3.375.741-4.026a2.406,2.406,0,0,1,1.171-.2c2.389.077,4.7,1.678,7.015,1.111a4.026,4.026,0,0,0,2.952-3.513c.151-2.167-1.473-4.026-3.07-5.485-2.875-2.644-7.257-3.231-11.162-3.295l-7.264-.121c-2.325-.04-4.932.034-6.549,1.7-2.328,2.4-1.157,6.324-1.493,9.649a10.065,10.065,0,0,1-3.691,6.76c-1.506,1.2-3.58,2.348-3.553,4.268a6.938,6.938,0,0,0,.473,1.916,9.244,9.244,0,0,1-1.389,7.482,19.95,19.95,0,0,1-5.66,5.368,15.779,15.779,0,0,0-3.261,2.617,7.717,7.717,0,0,0-1.7,4.338,5.7,5.7,0,0,0,.711,3.5c1.419,2.268,4.825,2.6,7.156,1.285s3.754-3.8,4.7-6.307c.564-1.486,1.137-3.187,2.58-3.855,1.825-.849,3.959.493,5.147,2.12s1.919,3.613,3.439,4.935a6.142,6.142,0,0,0,8.448-.7c1.439-1.748,1.758-4.167,1.677-6.432A9.371,9.371,0,0,0,228.189,278.862Z" transform="translate(-141.1 -194.43)" fill="#3f3d56"/>
  <path id="Path_28" data-name="Path 28" d="M195.4,358.381a4.815,4.815,0,0,1-4.164-1.439,16.535,16.535,0,0,1-2.637-3.727,65.621,65.621,0,0,0-6.76-9.374c-2.2-2.54-5.264-5.12-8.532-4.335a8.1,8.1,0,0,0-2.979,1.594,21.72,21.72,0,0,0-8.109,19.385c.255,2.137.835,4.227,1.077,6.374a40.862,40.862,0,0,1,.141,5.324c-.091,5.408-.275,11.129-3.191,15.685-4.519,7.045-6.938,15.46-10.256,23.15A79.017,79.017,0,0,0,146.07,424q-.936,3.919-1.869,7.834l-4.06,17.077a11.391,11.391,0,0,0-.4,5.368c.671,2.63,3.144,4.469,5.75,5.217s5.368.621,8.075.644a45.2,45.2,0,0,1,15.262,2.493,16.366,16.366,0,0,0,4.254,1.248,9.9,9.9,0,0,0,4.338-.8c3.781-1.463,7.022-4.026,10.5-6.1a41.512,41.512,0,0,1,6.844-3.311,7.506,7.506,0,0,0,3.3-1.845,5.96,5.96,0,0,0,1.1-2.634c1.134-5.287.372-10.766,0-16.161s-3.6-11.095-.929-15.8a12.656,12.656,0,0,0,1.453-2.916c.362-1.376.057-2.855.362-4.244a21.955,21.955,0,0,1,1.134-2.932,15.459,15.459,0,0,0,.725-5.465,59.971,59.971,0,0,0-1.275-12.078c-1.057-5.033,2.439-10.008,4.442-14.762.718-1.7,1.735-3.308,2.033-5.13a15.815,15.815,0,0,0-.335-4.965,43.447,43.447,0,0,1-.47-7.716,25.961,25.961,0,0,0-.245-6.925c-.554-2.251-2.134-4.435-4.405-4.9a1.8,1.8,0,0,0-1.516.238,1.962,1.962,0,0,0-.533.939c-.738,2.261-.594,4.7-1.006,7.046S197.713,357.885,195.4,358.381Z" transform="translate(-103.612 -256.896)" fill="#f86d70"/>
  <path id="Path_29" data-name="Path 29" d="M198.563,434.779c.138-.929-.3-2.164-1.235-2.13-.866.034-1.251,1.117-1.248,1.986s.121,1.865-.493,2.476c-.544.54-1.443.523-2.073.963a1.7,1.7,0,0,0-.715,1.4c0,.466.211.913.225,1.379s-.3,1.007-.762.976a2.1,2.1,0,0,0,.305,2.55c.242.235.557.436.637.765a1.846,1.846,0,0,1-.054.688,1.8,1.8,0,0,0,1.426,2.057,1.13,1.13,0,0,0,.06,1.677,2.624,2.624,0,0,0,1.8.517,10.949,10.949,0,0,0,4.231-.876,2.523,2.523,0,0,0,1.168-.805,1.006,1.006,0,0,0-.1-1.3,1.972,1.972,0,0,0,1.859-.335c.594-.7-.044-1.748-.671-2.429a1.342,1.342,0,0,0,.624-2.389c-.215-.158-.507-.3-.537-.56s.195-.436.289-.671c.215-.527-.275-1.064-.748-1.382-1.121-.745-2.771-.731-3.768-1.483S198.419,435.786,198.563,434.779Z" transform="translate(-138.438 -318.884)" fill="#be6f72"/>
  <path id="Path_30" data-name="Path 30" d="M404.511,287.257a15.875,15.875,0,0,1-2.446.057.534.534,0,0,0-.587.463l-1.56,11.7a4.75,4.75,0,0,1-1.007,2.318,5.053,5.053,0,0,0-1.137,3.862v19.878s-.1,2.65,1.936,2.65a29.442,29.442,0,0,0,7.341,0s1.63-.309,1.63-2.754V305.861a4.787,4.787,0,0,0-1.006-3.892,4.871,4.871,0,0,1-.976-2.3l-1.621-11.947A.533.533,0,0,0,404.511,287.257Z" transform="translate(-275.172 -222.271)" fill="#3f3d56"/>
  <path id="Path_31" data-name="Path 31" d="M404.511,287.257a15.875,15.875,0,0,1-2.446.057.534.534,0,0,0-.587.463l-1.56,11.7a4.75,4.75,0,0,1-1.007,2.318,5.053,5.053,0,0,0-1.137,3.862v19.878s-.1,2.65,1.936,2.65a29.442,29.442,0,0,0,7.341,0s1.63-.309,1.63-2.754V305.861a4.787,4.787,0,0,0-1.006-3.892,4.871,4.871,0,0,1-.976-2.3l-1.621-11.947A.533.533,0,0,0,404.511,287.257Z" transform="translate(-275.172 -222.271)" opacity="0.1"/>
  <rect id="Rectangle_76" data-name="Rectangle 76" width="9.887" height="16.718" rx="4.944" transform="translate(123.169 83.744)" fill="#fff"/>
  <path id="Path_32" data-name="Path 32" d="M511.815,136.418a15.457,15.457,0,0,1-2.234,1.007.537.537,0,0,0-.366.651l3.066,11.407a4.737,4.737,0,0,1-.027,2.523,5.032,5.032,0,0,0,.436,4l7.656,18.345s.926,2.483,2.808,1.7a29.236,29.236,0,0,0,6.777-2.838s1.385-.913.446-3.167l-7.539-18.063a4.8,4.8,0,0,0-2.426-3.207,4.881,4.881,0,0,1-1.788-1.748l-6.1-10.4A.537.537,0,0,0,511.815,136.418Z" transform="translate(-349.238 -121.999)" fill="#3f3d56"/>
  <rect id="Rectangle_77" data-name="Rectangle 77" width="9.887" height="16.718" rx="4.944" transform="translate(164.111 34.11) rotate(-22.65)" fill="#fff"/>
  <path id="Path_33" data-name="Path 33" d="M227.608,342.761c-3.607,1.486-5.033,6.109-4.187,9.914s3.392,6.975,5.875,9.991l6.958,8.488c1.922,2.348,4.026,4.821,6.958,5.64,4.288,1.2,8.575-1.533,12.283-4a185.032,185.032,0,0,1,35.281-18.372,11.867,11.867,0,0,0,3.449-1.785,6.359,6.359,0,0,0,1.5-7.381,7.389,7.389,0,0,0-6.532-4.046,8.826,8.826,0,0,0-6.952,3.57c-.775,1.03-1.342,2.208-2.09,3.254-1.892,2.63-4.845,4.257-7.733,5.727a197.5,197.5,0,0,1-21.472,9.394c-1.342.49-2.855.956-4.12.309a5,5,0,0,1-1.768-1.892,46.992,46.992,0,0,1-5.066-10.8c-.916-2.852-1.657-5.958-3.858-7.985a7.683,7.683,0,0,0-11.108,1.342s-2.741,4.009-1.064,5.687S227.608,342.761,227.608,342.761Z" transform="translate(-159.183 -257.984)" fill="#fbbebe"/>
  <path id="Path_34" data-name="Path 34" d="M785.641,295.119a10.237,10.237,0,0,1,.433,4.127c-.087,1.7-.513,3.69-2.09,4.338-1.026.413-2.295.1-3.207.725-1.107.752-1.053,2.369-.882,3.69.473,3.633,1.006,7.4,2.986,10.474a22.247,22.247,0,0,0,3.962,4.331c2.909,2.624,6.1,5.187,9.921,6.063a4.151,4.151,0,0,0,1.912.081,3.96,3.96,0,0,0,1.654-1.006c2.214-2.033,3.355-4.935,4.831-7.566a28.1,28.1,0,0,0,2.875-5.764,10.065,10.065,0,0,0-3.08-10.156c-.654-.56-1.379-1.03-2.013-1.61a10.326,10.326,0,0,1-3.019-5.861,25.648,25.648,0,0,1-.144-6.71,36.51,36.51,0,0,0-9.961.8c-1.456.292-3.506.426-4.824,1.121C783.51,292.985,785.235,293.995,785.641,295.119Z" transform="translate(-529.054 -224.224)" fill="#fbbebe"/>
  <path id="Path_35" data-name="Path 35" d="M785.641,295.119a10.237,10.237,0,0,1,.433,4.127c-.087,1.7-.513,3.69-2.09,4.338-1.026.413-2.295.1-3.207.725-1.107.752-1.053,2.369-.882,3.69.473,3.633,1.006,7.4,2.986,10.474a22.247,22.247,0,0,0,3.962,4.331c2.909,2.624,6.1,5.187,9.921,6.063a4.151,4.151,0,0,0,1.912.081,3.96,3.96,0,0,0,1.654-1.006c2.214-2.033,3.355-4.935,4.831-7.566a28.1,28.1,0,0,0,2.875-5.764,10.065,10.065,0,0,0-3.08-10.156c-.654-.56-1.379-1.03-2.013-1.61a10.326,10.326,0,0,1-3.019-5.861,25.648,25.648,0,0,1-.144-6.71,36.51,36.51,0,0,0-9.961.8c-1.456.292-3.506.426-4.824,1.121C783.51,292.985,785.235,293.995,785.641,295.119Z" transform="translate(-529.054 -224.224)" opacity="0.1"/>
  <path id="Path_36" data-name="Path 36" d="M625.341,206.885c-5.448-1.869-8.052-9.169-13.755-9.988-.9-.131-1.822-.081-2.7-.289-3.285-.778-4.7-4.576-5.646-7.814a126.578,126.578,0,0,0-13.319-30.923c-2.506-4.026-6.469-7.334-8.277-11.742a9.113,9.113,0,0,0-1.375-2.949c-.748-.8-2.349-.909-2.755.1a2.347,2.347,0,0,0-.074,1.111l.393,4.177L571,147.957a3.986,3.986,0,0,0-1.889.134,3.2,3.2,0,0,0-1.486,1.547c-2.308,4.338.151,10.021,4.224,12.766,4.757,3.2,11.551,3.691,14.712,8.471,1.879,2.845,1.916,6.505,3.154,9.683.59,1.52,1.453,2.915,2.141,4.388,1.312,2.808,1.983,5.861,3,8.787a77.468,77.468,0,0,0,5.764,11.957c1.657,2.993,3.355,6.039,5.9,8.327a29.04,29.04,0,0,0,5.623,3.691c4.851,2.65,10.572,5.2,15.711,3.167A34.41,34.41,0,0,0,625.341,206.885Z" transform="translate(-387.475 -126.116)" fill="#fbbebe"/>
  <path id="Path_37" data-name="Path 37" d="M756.757,735.591c-.413,4.378-3.07,8.344-3.69,12.558-4.093-.641-8.122-1.466-12.021-2.406-.48-.114-.956-.232-1.436-.336,2.208-6.039.285-12.8.869-19.234.057-.617.138-1.235.245-1.845,5.056-1.725,9.622-4.026,14.923-3.355.1,1.074.211,2.151.315,3.224q.319,3.218.631,6.428A26.068,26.068,0,0,1,756.757,735.591Z" transform="translate(-502.348 -510.397)" fill="#fbbebe"/>
  <path id="Path_38" data-name="Path 38" d="M859.838,746.315c-1.986.6-4.026,1.131-6.156,1.563-.356.074-.715.144-1.074.211-2.181.409-4.388.708-6.62.912-.228-4.663-3.355-8.951-3.811-13.739a20.187,20.187,0,0,1,.037-3.573c.04-.47.087-.939.131-1.409l.946-9.652a14.868,14.868,0,0,1,2.271-.111c4.361.1,8.33,1.993,12.652,3.466a30.158,30.158,0,0,1,.335,6.16c-.164,5.241-1.006,10.545.939,15.353C859.6,745.768,859.721,746.04,859.838,746.315Z" transform="translate(-570.463 -510.17)" fill="#fbbebe"/>
  <path id="Path_39" data-name="Path 39" d="M717.866,577.551c.587,4.576-1.751,8.958-2.764,13.457a47.617,47.617,0,0,0-.852,9.092l-.53,18.288a16.306,16.306,0,0,0,.456,5.445c1.121,3.516,4.573,5.891,8.166,6.737s7.351.416,11.011-.067a11.471,11.471,0,0,0,5.153-1.553c2.043-1.426,2.936-3.966,3.707-6.334l2.177-6.686c2.506,5.643,1.446,11.813,2.949,17.8a3.449,3.449,0,0,0,.671,1.52,3.763,3.763,0,0,0,2.627.882c6.576.463,13.242.923,19.711-.336a8.571,8.571,0,0,0,4.861-2.214c1.429-1.553,1.678-3.838,1.661-5.948-.091-7.25-2.711-14.245-3.295-21.472-.252-3.1-.128-6.21-.238-9.317a62.373,62.373,0,0,0-.654-6.978,9.373,9.373,0,0,0-.859-3.053c-1.006-1.879-3.1-2.9-5.076-3.69C751.37,576.877,734.454,576.937,717.866,577.551Z" transform="translate(-485.124 -414.995)" fill="#f86d70"/>
  <circle id="Ellipse_14" data-name="Ellipse 14" cx="14.426" cy="14.426" r="14.426" transform="translate(246.79 43.679)" fill="#fbbebe"/>
  <path id="Path_40" data-name="Path 40" d="M759.115,326.951c-1.07,2.348-2.754,4.7-5.261,5.294-2.3.554-4.747-.557-6.445-2.211a25.614,25.614,0,0,1-3.986-5.858,10.985,10.985,0,0,0-3.268-3.966c-1.986-1.288-4.549-1.255-6.891-.876s-4.667,1.057-7.045.9c-2.963-.2-5.982-1.677-8.777-.691.906,4.053.58,8.508.476,12.662a5.7,5.7,0,0,1-.268,1.892,6.115,6.115,0,0,1-.976,1.57l-2.684,3.459a16.752,16.752,0,0,1,6.375,8.418,21.172,21.172,0,0,1,.372,6.1c-.064,6.009,1.241,11.994.829,17.99-.483,7.022-3.288,13.658-4.734,20.546a53.791,53.791,0,0,0-.691,17.983,169.311,169.311,0,0,0,46.426,8.74c2.808.154,5.841.178,8.146-1.436a8.861,8.861,0,0,0,3.355-5.955,26.448,26.448,0,0,0-.141-7q-1.037-9.444-2.07-18.889a44.968,44.968,0,0,1,.758-18.724l3.355-16.124a33.181,33.181,0,0,1,1.912-6.737c.778-1.745,1.855-3.355,2.714-5.053a22.317,22.317,0,0,0,2.094-6.465,4.286,4.286,0,0,0-.027-1.979,4.582,4.582,0,0,0-2.479-2.3,72.032,72.032,0,0,0-19.848-6.962C759.866,323.257,759.957,325.109,759.115,326.951Z" transform="translate(-485.323 -243.435)" fill="#e3e8f4"/>
  <path id="Path_41" data-name="Path 41" d="M803,242.078c1.677-3.214,4.814-5.469,6.636-8.609a12.726,12.726,0,0,0,.409-11.743,42.48,42.48,0,0,1-2.013-3.878c-.56-1.557-.614-3.271-1.261-4.794a8.864,8.864,0,0,0-4.912-4.455,26.315,26.315,0,0,0-6.619-1.48l-7.623-1.027a8.386,8.386,0,0,0-3.321,0,2.816,2.816,0,0,0-2.161,2.285c-.1,1.319,1.054,2.546.785,3.841-.1.456-.366.919-.211,1.362a1.382,1.382,0,0,0,.671.671c1.808,1.007,3.969,1.1,5.928,1.755s3.925,2.308,3.727,4.362c-.107,1.1-.819,2.251-.336,3.241.463.916,1.677,1.084,2.647,1.369a7.094,7.094,0,0,1,4.881,7.549c-.141,1.007-.5,1.969-.577,2.979-.245,3.536.312,4.546,3.2,6.6Z" transform="translate(-530.603 -168.225)" fill="#3f3d56"/>
  <path id="Path_42" data-name="Path 42" d="M882.055,338.344a4.895,4.895,0,0,1-.359,1.956c-1.047,2.231-4.251,2.09-6.375,3.355-2.644,1.577-3.227,5.1-3.469,8.163a36.711,36.711,0,0,0,.248,10.4,13.985,13.985,0,0,0,5.281,8.723c3.479,2.419,8.21,2.5,12.182,1.03s7.29-4.321,10.169-7.435a32.408,32.408,0,0,0,6.643-9.991,3.182,3.182,0,0,0,.278-2.053c-.312-1.006-1.409-1.463-2.3-2.013a10.156,10.156,0,0,1-4.194-5.771,25.057,25.057,0,0,1-.866-7.217c-.027-2.526-.034-5.288-1.644-7.237s-4.4-2.5-6.945-2.476c-2.08,0-7.837.2-9.256,2.013C880.284,331.3,882.139,336.183,882.055,338.344Z" transform="translate(-590.06 -249.198)" fill="#be6f72"/>
  <path id="Path_43" data-name="Path 43" d="M882.055,338.344a4.895,4.895,0,0,1-.359,1.956c-1.047,2.231-4.251,2.09-6.375,3.355-2.644,1.577-3.227,5.1-3.469,8.163a36.711,36.711,0,0,0,.248,10.4,13.985,13.985,0,0,0,5.281,8.723c3.479,2.419,8.21,2.5,12.182,1.03s7.29-4.321,10.169-7.435a32.408,32.408,0,0,0,6.643-9.991,3.182,3.182,0,0,0,.278-2.053c-.312-1.006-1.409-1.463-2.3-2.013a10.156,10.156,0,0,1-4.194-5.771,25.057,25.057,0,0,1-.866-7.217c-.027-2.526-.034-5.288-1.644-7.237s-4.4-2.5-6.945-2.476c-2.08,0-7.837.2-9.256,2.013C880.284,331.3,882.139,336.183,882.055,338.344Z" transform="translate(-590.06 -249.198)" opacity="0.1"/>
  <path id="Path_44" data-name="Path 44" d="M845.731,579.093a2.87,2.87,0,0,0,.7,1.369,2.77,2.77,0,0,0,1.131.533c11.011,3.231,22.774,1.943,34.174.624-1.56-4.751-3.13-9.555-3.563-14.537-.359-4.11.044-8.388-1.412-12.242-.429-1.141-25.458,4.11-27.927,4.536-1.265.218-2.721.144-3.617,1.147-1.08,1.215-1.171,4.107-1.285,5.62A36.928,36.928,0,0,0,845.731,579.093Z" transform="translate(-571.625 -399.973)" fill="#be6f72"/>
  <path id="Path_45" data-name="Path 45" d="M876.46,722.212c-2.013.933-4.09,1.8-6.24,2.58q-1.745.634-3.563,1.188c-1.986.6-4.026,1.131-6.156,1.563q-1.822-4.62-3.647-9.243c-.9-2.268-1.792-4.546-2.54-6.864a42.98,42.98,0,0,1-1.282-4.828,34.439,34.439,0,0,1,.832-16.7c4.65.876,9.2,1.446,13.776,2.11,2.446.336,4.9.731,7.381,1.2q.292,2.426.53,4.851.362,3.744.594,7.488Q876.658,713.878,876.46,722.212Z" transform="translate(-577.281 -489.835)" fill="#be6f72"/>
  <path id="Path_46" data-name="Path 46" d="M876.46,722.212c-2.013.933-4.09,1.8-6.24,2.58q-1.745.634-3.563,1.188c-1.986.6-4.026,1.131-6.156,1.563q-1.822-4.62-3.647-9.243c-.9-2.268-1.792-4.546-2.54-6.864a42.98,42.98,0,0,1-1.282-4.828,34.439,34.439,0,0,1,.832-16.7c4.65.876,9.2,1.446,13.776,2.11,2.446.336,4.9.731,7.381,1.2q.292,2.426.53,4.851.362,3.744.594,7.488Q876.658,713.878,876.46,722.212Z" transform="translate(-577.281 -489.835)" opacity="0.1"/>
  <path id="Path_47" data-name="Path 47" d="M932.616,723.17a21.729,21.729,0,0,1-1.033,5.8c-.037.134-.07.265-.1.4a5.529,5.529,0,0,1-2.962-2.221,6.348,6.348,0,0,1-.8-1.862q-2.278,1.55-4.6,3.07a125.952,125.952,0,0,1-16.309,9.35c-2.013.933-4.09,1.8-6.24,2.58q-.671-2.349-1.275-4.727a43.782,43.782,0,0,1-1.033-4.962,25.2,25.2,0,0,1,1.114-11.29h0l.151-.436a24.675,24.675,0,0,1,2.2-4.627c.835-1.342,2.489-1.117,4.177-.671.765.2,1.54.436,2.244.584,4.385.919,8.938-.03,13.42.221a16.04,16.04,0,0,1,6.156,1.567,8.453,8.453,0,0,1,4.576,5.032,7.5,7.5,0,0,1,.221,1.006,8.883,8.883,0,0,1,.091,1.184Z" transform="translate(-607.637 -505.33)" fill="#be6f72"/>
  <path id="Path_48" data-name="Path 48" d="M668.06,224.177A155.972,155.972,0,0,0,645.2,206.462a62.771,62.771,0,0,1-6.039-4.3c-2.013-1.678-3.768-3.647-5.9-5.157s-4.781-2.546-7.347-2.05-4.848,2.952-4.472,5.522c.336,2.261,2.369,3.811,4.247,5.11a91.141,91.141,0,0,0,11,6.854,34.486,34.486,0,0,1,3.9,2.08c2.409,1.624,4.164,4.026,5.985,6.284A87.375,87.375,0,0,0,671.4,241.938c.114.067,4.083-8.5,3.915-9.609C674.945,229.776,669.885,225.948,668.06,224.177Z" transform="translate(-423.796 -160.851)" fill="#be6f72"/>
  <path id="Path_49" data-name="Path 49" d="M874.757,605.428c-5.348.335-10.478,2.14-15.708,3.291s-10.914,1.6-15.769-.671l2.952,20.16a9.356,9.356,0,0,1,.091,3.372,12.673,12.673,0,0,0-.758,3.124c.077,1.7,1.677,2.9,3.184,3.69a28.468,28.468,0,0,0,14.225,3.278c-.366,1.476-.822,2.936-1.191,4.412,2.466,2.647,6.5,2.825,10.018,3.664,2.684.634,5.2,1.735,7.831,2.51a33.427,33.427,0,0,0,9.8,1.366c2.238-.024,4.61-.336,6.348-1.731,2.137-1.721,2.8-4.647,3.264-7.351a16.725,16.725,0,0,0,.336-4.563,18.086,18.086,0,0,0-1.523-5.033l-4.6-11.155c-.835-2.013-1.677-4.056-2.684-6C887.287,611.508,881.832,604.989,874.757,605.428Z" transform="translate(-571.237 -433.683)" fill="#3f3d56"/>
  <path id="Path_50" data-name="Path 50" d="M815.655,332.451a5.033,5.033,0,0,1,5.267-3.211,9.778,9.778,0,0,1,3.691,1.641l6.408,4a27.916,27.916,0,0,1,3.05,2.1c4.419,3.664,6.123,9.686,6.609,15.406s0,11.538,1.137,17.164c-2.7,2.241-5.7,4.137-8.408,6.375a21.133,21.133,0,0,0-3.922,3.855c-.852,1.184-1.459,2.54-2.348,3.691a8.878,8.878,0,0,1-5.881,3.268,6.375,6.375,0,0,1,2.684,4.153c.4,1.647.5,3.355.943,5,.6,2.238,1.855,4.281,2.268,6.562a41.244,41.244,0,0,1,.265,4.784c.523,8.263,7.009,15.487,6.589,23.753a36.014,36.014,0,0,1-8.609-4.526c-1.194-.855-2.349-1.781-3.479-2.7l-8.545-6.928c-4.157-3.355-8.354-6.784-11.659-11-2.073-2.644-3.764-5.569-5.844-8.206a17.863,17.863,0,0,0-7.817-6.14c-.466.7-1.295,1.188-1.761,1.889a1.4,1.4,0,0,0-.195.362,1.587,1.587,0,0,0,.111.926,19.284,19.284,0,0,1,.671,4.157l.211,2.523a8.6,8.6,0,0,1,0,2.013,5.3,5.3,0,0,1-4.475,4.167,1.947,1.947,0,0,1-.943-.03,2.017,2.017,0,0,1-1.114-1.439c-.849-2.865.453-5.888.557-8.871a21.34,21.34,0,0,0-.077-2.268l-.2-2.976c-1.949-.406-3.07-2.5-3.586-4.422-1.4-5.19-2.8-10.562-1.993-15.876a13.253,13.253,0,0,0,.335-4.288c-.335-1.9-1.7-3.446-2.426-5.237-2.349-5.841,2.64-12.182,2.177-18.452-.194-2.634-1.865-4.922-2.872-7.364a20.806,20.806,0,0,0-2.013-4.063,22.491,22.491,0,0,0-3.758-3.821,143.517,143.517,0,0,1-11.8-11.628,8.723,8.723,0,0,1-5.083-2.328,4.676,4.676,0,0,1-1.637-3.164,2.471,2.471,0,0,1,2.094-2.56,7.928,7.928,0,0,1,2.07.47c2.174.476,4.362-1.124,5.331-3.134s.97-4.321.953-6.549a6.28,6.28,0,0,1,5.814,2.036A36.841,36.841,0,0,1,768.1,307.1a8.574,8.574,0,0,0,1.825,2.2c1.614,1.282,3.939,1.523,5.348,3.02.715.765,1.11,1.778,1.765,2.6,1.839,2.3,5.2,2.587,7.716,4.1s4.261,4.288,7.046,5.187c1.007.336,2.1.379,3.1.752,2.3.856,3.707,3.3,4.026,5.734a20.781,20.781,0,0,1-.775,7.287l-1.292,5.606c-.285,1.241-.5,2.734.413,3.62a3.73,3.73,0,0,0,1.486.748c2.348.765,4.965,1.517,7.173.433a8.484,8.484,0,0,0,2.61-2.281C811.813,342.251,813.991,337.2,815.655,332.451Z" transform="translate(-508.042 -230.362)" fill="#fff"/>
  <path id="Path_51" data-name="Path 51" d="M999.8,676.68a9.968,9.968,0,0,1-4.922,7.5,7.045,7.045,0,0,1-5.331.369,5.529,5.529,0,0,1-2.963-2.221,6.344,6.344,0,0,1-.8-1.862.57.57,0,0,0-.024-.1,14.764,14.764,0,0,1-.312-3.613,47.113,47.113,0,0,1,.335-5.633,30.508,30.508,0,0,1,.926-4.657c.624-2.177,1.523-4.274,2.349-6.374.429-1.107.842-2.218,1.181-3.355h0c.2-.671.379-1.362.52-2.06l.05-.252c.027-.141.05-.282.074-.423.335-1.912.433-3.892,1.295-5.62,2.013-4.056,5.932-3.019,6.529.721a6.6,6.6,0,0,1,.077.876c.09,4.734-1.788,9.36-.929,14.111a32.845,32.845,0,0,0,.913,3.429c.3,1.037.574,2.087.782,3.15A17.906,17.906,0,0,1,999.8,676.68Z" transform="translate(-665.702 -460.504)" fill="#be6f72"/>
  <path id="Path_52" data-name="Path 52" d="M996.09,525.089a37.623,37.623,0,0,0,.389,5.8c.909,4.5,4.362,8.475,3.979,13.044a3.521,3.521,0,0,1-1.48,2.862c-.973.55-2.583.507-2.9,1.614-.091.309-.044.644-.144.949a1.657,1.657,0,0,1-1.677.912,18.46,18.46,0,0,0-2.036-.181c-2.432.2-3.325,3.459-5.492,4.576a4.148,4.148,0,0,1-4.559-.775,5.679,5.679,0,0,1-1.637-4.482,33.306,33.306,0,0,1,.671-3.654,25.341,25.341,0,0,0-.017-6.609,39.956,39.956,0,0,0-1.654-9.545c-.5-1.443-1.164-2.822-1.6-4.284a24.915,24.915,0,0,1-.822-6.4c-.131-4.539.181-9.394,2.892-13.044,2.036-2.738,4.955-4.962,7.26-7.5,1.443-1.587,1.859-2.083,3.452-.738,1.312,1.1,2.684,2.627,2.832,4.123.4,3.835,0,7.606.718,11.511A88.375,88.375,0,0,1,996.09,525.089Z" transform="translate(-660.151 -361.553)" fill="#fff"/>
  <circle id="Ellipse_15" data-name="Ellipse 15" cx="17.11" cy="17.11" r="17.11" transform="translate(284.031 55.421)" fill="#be6f72"/>
  <path id="Path_53" data-name="Path 53" d="M915.383,292.728a1.914,1.914,0,0,1,2.848-.913l4.506,1.882a14.707,14.707,0,0,0,2.093-6.629,34.205,34.205,0,0,1,.255-4.315c.409-2.1,1.654-3.982,1.943-6.1a18.762,18.762,0,0,0-.433-5.14c-.765-5.274.057-10.655-.383-15.966s-2.57-11-7.307-13.44a44.4,44.4,0,0,0-4.184-1.6c-3.11-1.184-5.9-3.08-8.971-4.362s-6.683-1.869-9.662-.4-4.714,5.616-2.778,8.32a10.151,10.151,0,0,0,2.463,2.161c1.815,1.3,3.667,2.9,4.086,5.1.751,3.949-3.355,7.046-4.512,10.907a9.273,9.273,0,0,0-.111,4.627c.5,2.288,1.721,4.449,1.678,6.791-.034,2.567-1.57,4.892-1.859,7.445-.1.936-.04,1.885-.158,2.818a14.54,14.54,0,0,1-1.084,3.566c-2.684,6.71-5.4,13.49-9.394,19.523a25.857,25.857,0,0,0,12.289-2.872,20.311,20.311,0,0,1-3.077,7.227A23.283,23.283,0,0,0,903.248,308a31.243,31.243,0,0,1-3.053,7.25c.114-.195,2.224-.671,2.614-.892a4.553,4.553,0,0,0,1.845-1.969c1.141-2.04,1.852-4.5,2.909-6.619a96.393,96.393,0,0,1,7.821-13.037Z" transform="translate(-598.574 -187.464)" fill="#3f3d56"/>
  <path id="Path_54" data-name="Path 54" d="M576.511,101.257a15.883,15.883,0,0,1-2.446.057.533.533,0,0,0-.587.463l-1.56,11.7a4.75,4.75,0,0,1-1.006,2.318,5.052,5.052,0,0,0-1.137,3.862v19.878s-.1,2.65,1.936,2.65a29.439,29.439,0,0,0,7.341,0s1.63-.309,1.63-2.754V119.861a4.787,4.787,0,0,0-1.006-3.892,4.872,4.872,0,0,1-.976-2.3l-1.62-11.947A.533.533,0,0,0,576.511,101.257Z" transform="translate(-389.466 -98.674)" fill="#3f3d56"/>
  <rect id="Rectangle_78" data-name="Rectangle 78" width="9.887" height="16.718" rx="4.944" transform="translate(180.875 21.341)" fill="#fff"/>
  <path id="Path_55" data-name="Path 55" d="M645.511,152.257a15.887,15.887,0,0,1-2.446.057.533.533,0,0,0-.587.463l-1.56,11.7a4.75,4.75,0,0,1-1.007,2.318,5.052,5.052,0,0,0-1.137,3.862v19.878s-.1,2.65,1.936,2.65a29.439,29.439,0,0,0,7.341,0s1.631-.309,1.631-2.754V170.861a4.788,4.788,0,0,0-1.007-3.892,4.872,4.872,0,0,1-.976-2.3l-1.62-11.947A.533.533,0,0,0,645.511,152.257Z" transform="translate(-435.317 -132.563)" fill="#3f3d56"/>
  <rect id="Rectangle_79" data-name="Rectangle 79" width="9.887" height="16.718" rx="4.944" transform="translate(204.024 38.452)" fill="#fff"/>
  <g id="Group_12" data-name="Group 12" transform="translate(164.402 129.901)" opacity="0.2">
    <path id="Path_56" data-name="Path 56" d="M567.17,740.272a6.38,6.38,0,0,1-.124,1.077q-3.5-.557-7.046-1.007v-.288a5.663,5.663,0,0,1,.839-2.845,3.121,3.121,0,0,1,5.68.174A5.661,5.661,0,0,1,567.17,740.272Z" transform="translate(-547.399 -650.008)" fill="#3f3d56"/>
    <ellipse id="Ellipse_16" data-name="Ellipse 16" cx="4.7" cy="3.59" rx="4.7" ry="3.59" transform="translate(12.635 89.007) rotate(-88.19)" fill="#3f3d56"/>
    <ellipse id="Ellipse_17" data-name="Ellipse 17" cx="4.7" cy="3.59" rx="4.7" ry="3.59" transform="translate(12.818 83.263) rotate(-88.19)" fill="#3f3d56"/>
    <ellipse id="Ellipse_18" data-name="Ellipse 18" cx="4.7" cy="3.59" rx="4.7" ry="3.59" transform="translate(12.998 77.519) rotate(-88.19)" fill="#3f3d56"/>
    <ellipse id="Ellipse_19" data-name="Ellipse 19" cx="4.7" cy="3.59" rx="4.7" ry="3.59" transform="translate(13.181 71.776) rotate(-88.19)" fill="#3f3d56"/>
    <path id="Path_57" data-name="Path 57" d="M527.147,508.192a16.662,16.662,0,0,1-1.275-2.013l9.481-1.251-10.206-.245a17.238,17.238,0,0,1,.1-13.635l13.46,7.532-12.33-9.676a17.2,17.2,0,1,1,27.793,20.13,17.043,17.043,0,0,1,1.862,3.2L543.594,518.2l13.2-3.969a17.225,17.225,0,0,1-3.295,16.074,17.2,17.2,0,1,1-27.028-.852,17.2,17.2,0,0,1,.671-21.264Z" transform="translate(-522.44 -480.747)" fill="#fff"/>
    <path id="Path_58" data-name="Path 58" d="M557.52,596.577a17.11,17.11,0,0,1-4.026,10.515,17.2,17.2,0,1,1-27.028-.852C524.262,603.244,557.581,594.648,557.52,596.577Z" transform="translate(-522.44 -557.531)" opacity="0.1"/>
  </g>
</svg>
