<?xml version="1.0" encoding="UTF-8"?>
<svg width="24px" height="24px" viewBox="0 0 24 24" version="1.1" xmlns="http://www.w3.org/2000/svg" xmlns:xlink="http://www.w3.org/1999/xlink">
    <!-- Generator: Sketch 54.1 (76490) - https://sketchapp.com -->
    <title>house</title>
    <desc>Created with Sketch.</desc>
    <g id="Page-1" stroke="none" stroke-width="1" fill="none" fill-rule="evenodd">
        <g id="Artboard-Copy-14" transform="translate(-28.000000, -749.000000)" fill="#FCA25D" fill-rule="nonzero" stroke="#FEA255" stroke-width="0.2">
            <g id="Home">
                <g id="Component_47_1">
                    <g transform="translate(0.000000, 703.000000)">
                        <g id="house" transform="translate(28.997000, 47.000000)">
                            <g id="Group_4" transform="translate(0.003000, 0.000000)">
                                <path d="M22.197,9.619 L19.687,7.341 L19.687,0.941 C19.6880638,0.69179982 19.5898143,0.452441309 19.4139773,0.275853647 C19.2381403,0.099265985 18.9992025,-2.27072792e-06 18.75,0 L14.997,0 C14.4795092,0 14.06,0.419509189 14.06,0.937 L14.06,2.227 L11.978,0.333 L11.878,0.244 C11.8130223,0.18622054 11.7403263,0.137756514 11.662,0.1 L11.651,0.1 C11.3976713,-0.0192778118 11.1043287,-0.0192778118 10.851,0.1 L10.84,0.1 C10.7603195,0.139057534 10.6865845,0.189224273 10.621,0.249 L10.521,0.336 L0.307,9.619 C0.123008247,9.78618095 0.0129952502,10.019627 0.0011794195,10.267947 C-0.0106364112,10.516267 0.0767135629,10.7591042 0.244,10.943 C0.592401513,11.3256145 1.18484289,11.3538047 1.568,11.006 L1.875,10.727 L1.875,21.563 C1.875,22.0804908 2.29450919,22.5 2.812,22.5 L19.688,22.5 C19.9366811,22.5002654 20.1752677,22.4016632 20.3512056,22.2259129 C20.5271435,22.0501625 20.6260001,21.8116812 20.626,21.563 L20.626,10.727 L20.933,11.006 C21.1807637,11.2317919 21.5301653,11.3082518 21.8495886,11.2065781 C22.169012,11.1049044 22.409929,10.8405436 22.4815886,10.5130781 C22.5532483,10.1856125 22.4447637,9.84479185 22.197,9.619 L22.197,9.619 Z M15.937,1.875 L17.812,1.875 L17.812,5.637 L15.937,3.937 L15.937,1.875 Z M9.375,20.625 L9.375,14.063 C9.375,13.5455092 9.79450919,13.126 10.312,13.126 L12.187,13.126 C12.7044908,13.126 13.124,13.5455092 13.124,14.063 L13.124,20.626 L9.375,20.625 Z M18.75,20.625 L14.997,20.625 L14.997,14.063 C14.9975525,12.5103655 13.7396342,11.2511042 12.187,11.25 L10.312,11.25 C9.56551828,11.2492036 8.84935241,11.5452527 8.32132228,12.0729077 C7.79329215,12.6005626 7.49673411,13.3165179 7.497,14.063 L7.497,20.626 L3.75,20.626 L3.75,9.023 L11.25,2.205 L14.365,5.036 L14.365,5.036 L16.526,7 L18.75,9.022 L18.75,20.622 L18.75,20.625 Z" id="Path_2"></path>
                            </g>
                        </g>
                    </g>
                </g>
            </g>
        </g>
    </g>
</svg>