<svg xmlns="http://www.w3.org/2000/svg" width="22.701" height="22.705" viewBox="0 0 22.701 22.705">
  <g id="house" transform="translate(1.097 1.105)">
    <g id="Group_4" data-name="Group 4" transform="translate(-0.997 -1)">
      <path id="Path_2" data-name="Path 2" d="M21.2,8.619,18.69,6.341v-6.4A.937.937,0,0,0,17.753-1H14a.937.937,0,0,0-.937.937v1.29L10.981-.667l-.1-.089A.938.938,0,0,0,10.665-.9l-.011,0a.939.939,0,0,0-.8,0l-.011,0a.938.938,0,0,0-.219.149l-.1.087L-.69,8.619A.937.937,0,0,0-.753,9.943a.938.938,0,0,0,1.324.063l.307-.279V20.563a.937.937,0,0,0,.937.937H18.691a.937.937,0,0,0,.938-.937V9.727l.307.279A.937.937,0,1,0,21.2,8.619ZM14.94.875h1.875V4.637l-1.875-1.7ZM8.378,19.625V13.063a.937.937,0,0,1,.937-.937H11.19a.937.937,0,0,1,.937.937v6.563Zm9.375,0H14V13.063A2.812,2.812,0,0,0,11.19,10.25H9.315A2.812,2.812,0,0,0,6.5,13.063v6.563H2.753V8.023l7.5-6.818,3.115,2.831,0,0L15.529,6l2.224,2.022v11.6Z" transform="translate(0.997 1)" fill="#c8c9cb" stroke="#fff" stroke-width="0.2"/>
    </g>
  </g>
</svg>
