<svg id="undraw_modern_design_v3wv" xmlns="http://www.w3.org/2000/svg" width="203.784" height="214.672" viewBox="0 0 203.784 214.672">
  <ellipse id="Ellipse_23" data-name="Ellipse 23" cx="101.892" cy="5.21" rx="101.892" ry="5.21" transform="translate(0 204.252)" fill="#e6e6e6"/>
  <path id="Path_1309" data-name="Path 1309" d="M887.087,539.794v1.261s2.27,8.071-.5,8.071-3.783-7.819-3.783-7.819v-1.513Z" transform="translate(-699.047 -406.466)" fill="#ffb8b8"/>
  <path id="Path_1310" data-name="Path 1310" d="M723.346,422.718l.5-2.018s2.774-6.306,5.044-5.044-1.009,6.053-1.009,6.053l-.5,1.261Z" transform="translate(-585.75 -318.142)" fill="#ffb8b8"/>
  <path id="Path_1311" data-name="Path 1311" d="M531.111,671.97l.5,4.288,4.792.757v-5.549Z" transform="translate(-377.373 -477.099)" fill="#ffb8b8"/>
  <path id="Path_1312" data-name="Path 1312" d="M622.6,667.613l.5,6.305,5.549-.757-1.009-6.053Z" transform="translate(-442.38 -474.003)" fill="#ffb8b8"/>
  <path id="Path_1313" data-name="Path 1313" d="M520.793,494.63l-1.009.252,2.774,26.735v23.961l7.062-1.261,3.531-42.121L544,522.879l5.3,20.934,8.323-1.513-6.81-26.231-4.54-24.97Z" transform="translate(-369.324 -348.943)" fill="#2f2e41"/>
  <path id="Path_1314" data-name="Path 1314" d="M762.555,759.894s-2.27-1.513-3.027-.5-4.036,6.053-4.036,6.053-8.071,8.323,0,8.071c0,0,5.3,0,6.306-3.027a1.922,1.922,0,0,1,2.018-1.513c1.766,0,3.783-1.766,3.783-2.774s-1.766-6.1-2.522-5.321S762.555,759.894,762.555,759.894Z" transform="translate(-606.043 -562.249)" fill="#2f2e41"/>
  <path id="Path_1315" data-name="Path 1315" d="M869.859,759.894s2.27-1.513,3.027-.5,4.035,6.053,4.035,6.053,8.071,8.323,0,8.071c0,0-5.3,0-6.305-3.027a1.922,1.922,0,0,0-2.018-1.513c-1.766,0-3.783-1.766-3.783-2.774s1.766-6.1,2.522-5.321S869.859,759.894,869.859,759.894Z" transform="translate(-686.268 -562.249)" fill="#2f2e41"/>
  <circle id="Ellipse_24" data-name="Ellipse 24" cx="6.658" cy="6.658" r="6.658" transform="translate(145.441 89.973)" fill="#ffb8b8"/>
  <path id="Path_1316" data-name="Path 1316" d="M523.705,340.978l3.531,4.288,6.305-5.3L529,336.438Z" transform="translate(-372.111 -239.051)" fill="#ffb8b8"/>
  <path id="Path_1317" data-name="Path 1317" d="M760.9,429.728l.206-1.866,7.08-4.068,9.619-.913a2.272,2.272,0,0,1,2.477,2.049l3.57,37.84,1.261,3.279s-22.2,12.611-27.24,3.279l3.783-19.673-7.819-14.881Z" transform="translate(-607.418 -323.387)" fill="#fca25d"/>
  <path id="Path_1318" data-name="Path 1318" d="M837.49,424.133a2.073,2.073,0,0,0,.449-.128,2.28,2.28,0,0,1,2.609.794l11.318,15.476,4.288,17.908H850.1l-4.035-12.107-6.558-8.576Z" transform="translate(-666.853 -324.097)" fill="#fca25d"/>
  <path id="Path_1319" data-name="Path 1319" d="M475.976,365.1l-2.018.5-6.053,5.3,2.018-12.107-5.045-1.009-3.909,20.3,2.774,2.774,15.764-6.432Z" transform="translate(-327.534 -254.219)" fill="#fca25d"/>
  <path id="Path_1320" data-name="Path 1320" d="M754.8,392.218s-2.735-4.016-4.3-2.694-5.953,3.916-6.878,1.863,2.629-5.814,5.311-6.714,7.391-2.094,8.868,1.871a17.339,17.339,0,0,1,.867,7.852Z" transform="translate(-600.051 -295.61)" fill="#2f2e41"/>
  <ellipse id="Ellipse_25" data-name="Ellipse 25" cx="0.724" cy="1.303" rx="0.724" ry="1.303" transform="translate(153.457 95.18) rotate(-19.977)" fill="#ffb8b8"/>
  <path id="Path_1321" data-name="Path 1321" d="M418.155,129.254H417V97.544a18.353,18.353,0,0,0-18.353-18.353H331.463a18.353,18.353,0,0,0-18.353,18.353V271.505a18.353,18.353,0,0,0,18.353,18.353h67.181A18.353,18.353,0,0,0,417,271.505V151.825h1.158Z" transform="translate(-294.263 -79.191)" fill="#3f3d56"/>
  <path id="Path_1322" data-name="Path 1322" d="M411.815,95.686h-8.769a6.511,6.511,0,0,1-6.029,8.971H358.53a6.511,6.511,0,0,1-6.029-8.971h-8.191a13.706,13.706,0,0,0-13.706,13.706V283.1A13.706,13.706,0,0,0,344.311,296.8h67.5A13.706,13.706,0,0,0,425.521,283.1V109.392A13.706,13.706,0,0,0,411.815,95.686Z" transform="translate(-306.694 -90.912)" fill="#fff"/>
  <rect id="Rectangle_1464" data-name="Rectangle 1464" width="23.927" height="2.222" transform="translate(56.827 51.439)" fill="#fca25d"/>
  <rect id="Rectangle_1465" data-name="Rectangle 1465" width="41.703" height="2.222" transform="translate(56.827 59.126)" fill="#e6e6e6"/>
  <rect id="Rectangle_1466" data-name="Rectangle 1466" width="41.662" height="2.222" transform="translate(56.827 66.812)" fill="#e6e6e6"/>
  <rect id="Rectangle_1467" data-name="Rectangle 1467" width="17.776" height="17.776" transform="translate(34.093 51.472)" fill="#fca25d"/>
  <rect id="Rectangle_1468" data-name="Rectangle 1468" width="23.927" height="2.222" transform="translate(56.827 98.101)" fill="#fca25d"/>
  <rect id="Rectangle_1469" data-name="Rectangle 1469" width="41.703" height="2.222" transform="translate(56.827 105.787)" fill="#e6e6e6"/>
  <rect id="Rectangle_1470" data-name="Rectangle 1470" width="41.662" height="2.222" transform="translate(56.827 113.474)" fill="#e6e6e6"/>
  <rect id="Rectangle_1471" data-name="Rectangle 1471" width="17.776" height="17.776" transform="translate(34.093 98.134)" fill="#fca25d"/>
  <rect id="Rectangle_1472" data-name="Rectangle 1472" width="23.927" height="2.222" transform="translate(56.827 144.763)" fill="#fca25d"/>
  <rect id="Rectangle_1473" data-name="Rectangle 1473" width="41.703" height="2.222" transform="translate(56.827 152.449)" fill="#e6e6e6"/>
  <rect id="Rectangle_1474" data-name="Rectangle 1474" width="41.662" height="2.222" transform="translate(56.827 160.136)" fill="#e6e6e6"/>
  <rect id="Rectangle_1475" data-name="Rectangle 1475" width="17.776" height="17.776" transform="translate(34.093 144.796)" fill="#fca25d"/>
</svg>
