<svg xmlns="http://www.w3.org/2000/svg" width="172.605" height="210.885" viewBox="0 0 172.605 210.885">
  <g id="undraw_in_real_life_v8fk" transform="translate(0)">
    <path id="Path_140" data-name="Path 140" d="M303.576,358.169a6.378,6.378,0,0,0-.13,8.975l39.163,40a6.364,6.364,0,0,0,9.067.088l120.72-122.5a6.365,6.365,0,0,0-1.017-9.843L426.47,245.107a6.327,6.327,0,0,0-7.92.78Z" transform="translate(-301.664 -198.195)" fill="#3f3d56"/>
    <path id="Path_141" data-name="Path 141" d="M481.046,295.533l-5.007-3.192a4.77,4.77,0,0,1-6.866,6.263l-32.4-22.275a4.767,4.767,0,0,1,1.26-8.476l-2.579-1.645a1.736,1.736,0,0,0-2.168.244L324.293,373.564a1.736,1.736,0,0,0,.044,2.483l39.584,38.57a1.736,1.736,0,0,0,2.416-.034l115-116.357a1.736,1.736,0,0,0-.292-2.693Z" transform="translate(-317.391 -213.74)" fill="#fff"/>
    <path id="Path_142" data-name="Path 142" d="M130.873,290.591l33.436,31.525,79.53-78.575-40.362-26.271Z" transform="translate(-93.014 -154.419)" fill="#e6e6e6"/>
    <path id="Path_143" data-name="Path 143" d="M811.526,438.709a1.185,1.185,0,0,0,1.637,0l6.955-6.955a1.159,1.159,0,0,0,0-1.636,1.185,1.185,0,0,0-1.636,0l-6.955,6.955A1.159,1.159,0,0,0,811.526,438.709Z" transform="translate(-663.792 -330.194)" fill="#3f3d56"/>
    <path id="Path_144" data-name="Path 144" d="M771.026,479.181a1.159,1.159,0,0,0,1.637,0l6.955-6.955a1.157,1.157,0,0,0-1.637-1.637l-6.955,6.955A1.159,1.159,0,0,0,771.026,479.181Z" transform="translate(-635.008 -358.95)" fill="#3f3d56"/>
    <circle id="Ellipse_20" data-name="Ellipse 20" cx="7.811" cy="7.811" r="7.811" transform="translate(30.821 155.422)" fill="#fca25d"/>
    <ellipse id="Ellipse_21" data-name="Ellipse 21" cx="21.551" cy="11.716" rx="21.551" ry="11.716" transform="translate(61.195 114.055)" fill="#fff"/>
    <path id="Path_145" data-name="Path 145" d="M443.961,152.57l-.258,2.34-.152,1.384-.746,6.771s-.569,1.056-1.585,2.536c-1.691,2.46-4.63,6.092-8.277,8-5.844,3.062-8.148-18.929-8.148-18.929s-1.263-8.526,1.84-8.839,2.035,3.36,2.271,9.4,4.288,11.154,4.288,11.154a83.862,83.862,0,0,0,6.208-10,6.752,6.752,0,0,1,3.1-3.47h0a3.8,3.8,0,0,1,.954-.31A2.26,2.26,0,0,1,443.961,152.57Z" transform="translate(-388.995 -128.369)" fill="#ffb8b8"/>
    <path id="Path_146" data-name="Path 146" d="M458.492,179.375,468,184.9l5.179-9.229-1.17-4.162h0a7.154,7.154,0,0,0-9.348.458Z" transform="translate(-413.125 -145.551)" fill="#fca25d"/>
    <path id="Path_147" data-name="Path 147" d="M454.807,86.359h0c-5.506,2.276-7.922,9.075-5.4,15.186l3.209,7.764,2.388-.987.193-3.448.844,3.019,15.348-6.345.176-3.135.767,2.745,1.728-.714-2.52-6.1C468.636,87.317,461.143,83.74,454.807,86.359Z" transform="translate(-405.958 -85.501)" fill="#2f2e41"/>
    <path id="Path_148" data-name="Path 148" d="M489.448,213.555l.968,7.032,15.227-6.941-2.444-5.13S490.353,210.272,489.448,213.555Z" transform="translate(-435.125 -172.93)" fill="#a0616a"/>
    <path id="Path_149" data-name="Path 149" d="M172.549,237.515l9.531,8.986,2.3-7.735-7.058-6.13Z" transform="translate(-122.634 -165.338)" fill="#ffb8b8"/>
    <path id="Path_150" data-name="Path 150" d="M273.458,366.117l5.8,12.467,6.072-2.51-6.076-12.353Z" transform="translate(-194.352 -258.503)" fill="#ffb8b8"/>
    <path id="Path_151" data-name="Path 151" d="M475.775,260.406l6.525,7.967,22.395,42.447s4.32-.493,6.51-3.014l-1.958-6.3-13.272-35.231s4.1-4.928,1.954-8.563-5.7-8.309-5.7-8.309Z" transform="translate(-425.408 -201.989)" fill="#2f2e41"/>
    <path id="Path_152" data-name="Path 152" d="M569.488,483.043l-1.656.685s-2.638,6.907-4.066,8.144-8.044,9.465-.8,7.441a17.236,17.236,0,0,0,10.175-7.438,6.823,6.823,0,0,0,5.358-1.892c2.58-2.359-.446-4.986-.446-4.986s-3.628-4.411-3.669-4.347S573.712,483.882,569.488,483.043Z" transform="translate(-485.008 -366.34)" fill="#2f2e41"/>
    <circle id="Ellipse_22" data-name="Ellipse 22" cx="6.869" cy="6.869" r="6.869" transform="translate(42.42 8.705) rotate(-22.459)" fill="#ffb8b8"/>
    <path id="Path_153" data-name="Path 153" d="M494.494,133.245l-1.914,3.641-.257.488,1.093,3.426-10.764,4.45s.942-1.879,1.762-3.759c.015-.042.032-.087.052-.132.111-.256.208-.49.3-.7.046-.116.091-.225.13-.325.064-.165.128-.324.191-.483a.01.01,0,0,0,0-.007,11.655,11.655,0,0,0,.409-1.261l0,0a3.48,3.48,0,0,0,.072-.35c.258-1.722-2.815-3.684-2.815-3.684L487.568,129c1.449,2.9,4.806,3.856,6.248,4.139C494.238,133.218,494.494,133.245,494.494,133.245Z" transform="translate(-430.296 -116.415)" fill="#ffb8b8"/>
    <path id="Path_154" data-name="Path 154" d="M546.059,181.148c-3.684,2.815-7.382-5.35-7.382-5.35l-10.322-8.965a28.278,28.278,0,0,1-5.568-6.575l-4.674-7.628-.2.635v0l-.563.646-7.163-5.118-2.007-1.432-.913-2.208,3.341-3.643,1.656-.685s.034-.02.095-.052c.729-.395,5.549-2.775,7.8,1.958.885,1.858,1.527,3.434,1.985,4.69a39.438,39.438,0,0,0,5.162,9.762A13.513,13.513,0,0,0,529.4,159.6c1.9,1.476,12.042,15.058,12.042,15.058S549.743,178.332,546.059,181.148Z" transform="translate(-447.79 -124.112)" fill="#ffb8b8"/>
    <path id="Path_155" data-name="Path 155" d="M491,162.125a7.581,7.581,0,0,1-.6,1.751A14.42,14.42,0,0,0,491,162.125Z" transform="translate(-435.798 -139.959)" fill="#d0cde1"/>
    <path id="Path_156" data-name="Path 156" d="M496.571,155.151l-.117.443-.085,9.109s-3.609,6.53-7.7,7.575c-2.326.523-6.688-1.769-7.078.584l-1.622-7.454-1.413-1.736c-.165-.2-.351-.427-.556-.681-1.969-2.418-.188-6.709-.188-6.709l2.028-5.288h0a3.8,3.8,0,0,1,.954-.31c-.087.211-.185.445-.3.7-.021.044-.037.09-.052.132-.611,1.516.063,1.59.59,1.466a2.632,2.632,0,0,0,.5-.179c1.219-.31,3.322-2.362,4.822-3.971,1.021-1.094,1.765-1.984,1.765-1.984l1.5-3.2.225-.481c.421.081.678.108.678.108l.276-.114s.034-.02.095-.052l-.871,1.452a5.055,5.055,0,0,0-.206,4.823h0Z" transform="translate(-426.33 -126.44)" fill="#fca25d"/>
    <path id="Path_157" data-name="Path 157" d="M431.828,222.33l-3.384,3.244s-25.412.581-25.872,8.85,21.289,18.668,21.289,18.668l5.369-5.774-6.183-7.139s21.6,6.906,25.141-3.284-5.228-18.9-5.228-18.9S437.473,216.442,431.828,222.33Z" transform="translate(-373.376 -179.534)" fill="#2f2e41"/>
    <path id="Path_158" data-name="Path 158" d="M502.5,334.466l-1.685,2.959s5.859,7.919,5.6,9.641-.316,6.271,2.606,4.74,4.294-7.592,3.886-9.362a65.091,65.091,0,0,1-.53-7.537s.117-9.1-2.481-8.346-6.631,2.2-6.631,2.2Z" transform="translate(-443.203 -256.796)" fill="#2f2e41"/>
    <path id="Path_159" data-name="Path 159" d="M461.176,92.985a5.658,5.658,0,0,0-5-.4l-.2.081c-3.774,1.56-5.422,6.24-3.68,10.453h0l1.265-.523-.438-1.639.942,1.431,7.5-3.1.085-1.575.387,1.38,1.475-.61q3.153,4.7,1.273,11.485l2.513-1.039.169-3.15.773,2.76,4.791-1.981-1.558-6.439A11.063,11.063,0,0,0,461.176,92.985Z" transform="translate(-408.233 -90.251)" fill="#2f2e41"/>
    <path id="Path_160" data-name="Path 160" d="M535.683,150.246l-14.5,6L516.53,144.99l1.907-4.594h0a8.23,8.23,0,0,1,10.615,1.8Z" transform="translate(-454.373 -123.669)" fill="#fca25d"/>
  </g>
</svg>
