<svg xmlns="http://www.w3.org/2000/svg" width="195.322" height="213.554" viewBox="0 0 195.322 213.554">
  <g id="undraw_collaborating_g8k8" transform="translate(0)">
    <path id="Path_1324" data-name="Path 1324" d="M597.761,65.1V228.531a7.347,7.347,0,0,1-7.345,7.34h-66.35a7.332,7.332,0,0,1-7.345-7.34V65.1a7.344,7.344,0,0,1,7.345-7.345H534v1.273a6.048,6.048,0,0,0,6.047,6.049h33.745a6,6,0,0,0,3.585-1.18,5.615,5.615,0,0,0,.6-.5,6.031,6.031,0,0,0,1.866-4.37V57.752h10.582A7.342,7.342,0,0,1,597.761,65.1Z" transform="translate(-440.058 -49.875)" fill="#f2f2f2"/>
    <circle id="Ellipse_26" data-name="Ellipse 26" cx="14.372" cy="14.372" r="14.372" transform="translate(104.687 95.667)" fill="#fca25d"/>
    <path id="Path_1325" data-name="Path 1325" d="M574.395,222.169H497.6a9.091,9.091,0,0,1-4.886-1.407,8.205,8.205,0,0,1-3.867-6.887V34.811a8.545,8.545,0,0,1,8.753-8.3h18.048v1.647a6.576,6.576,0,0,0,6.746,6.375h25.442a6.93,6.93,0,0,0,4-1.247,6.348,6.348,0,0,0,2.741-5.128V26.511h19.812a8.545,8.545,0,0,1,8.753,8.3V213.875a8.107,8.107,0,0,1-3.082,6.315A9.02,9.02,0,0,1,574.395,222.169ZM497.6,27.016a8.041,8.041,0,0,0-8.249,7.8V213.875a7.7,7.7,0,0,0,3.634,6.462,8.586,8.586,0,0,0,4.615,1.328h76.793a8.514,8.514,0,0,0,5.354-1.866,7.606,7.606,0,0,0,2.895-5.923V34.811a8.041,8.041,0,0,0-8.249-7.8H555.087v1.143a6.852,6.852,0,0,1-2.958,5.542,7.429,7.429,0,0,1-4.292,1.337H522.4a7.08,7.08,0,0,1-7.25-6.879V27.016Z" transform="translate(-419.213 -26.511)" fill="#2f2e41"/>
    <path id="Path_1326" data-name="Path 1326" d="M640.288,416.681H595.943V368.936h44.345Zm-43.776-.569H639.72V369.5H596.512Z" transform="translate(-499.305 -282.598)" fill="#3f3d56"/>
    <rect id="Rectangle_1476" data-name="Rectangle 1476" width="29.113" height="0.569" transform="translate(102.202 45.233)" fill="#3f3d56"/>
    <rect id="Rectangle_1477" data-name="Rectangle 1477" width="29.113" height="0.569" transform="translate(102.202 52.972)" fill="#3f3d56"/>
    <rect id="Rectangle_1478" data-name="Rectangle 1478" width="29.113" height="0.569" transform="translate(102.202 60.711)" fill="#3f3d56"/>
    <path id="Path_1327" data-name="Path 1327" d="M252.294,743.8l-.271-.1c-.059-.022-5.978-2.29-8.75-7.431s-1.415-11.332-1.4-11.394l.064-.282.27.1c.059.022,5.978,2.29,8.75,7.431s1.415,11.332,1.4,11.394Zm-8.577-7.772c2.344,4.347,7.021,6.576,8.206,7.084.225-1.27.932-6.406-1.41-10.749s-7.02-6.574-8.206-7.084C242.081,726.552,241.375,731.688,243.717,736.03Z" transform="translate(-234.25 -548.582)" fill="#3f3d56"/>
    <path id="Path_1328" data-name="Path 1328" d="M223.807,757.525c4.982,3,6.9,8.952,6.9,8.952s-6.159,1.094-11.141-1.9-6.9-8.951-6.9-8.951S218.824,754.528,223.807,757.525Z" transform="translate(-212.665 -571.641)" fill="#fca25d"/>
    <path id="Path_1329" data-name="Path 1329" d="M707.75,768.13l.462,7.619,2.54,2.771,5.31-3.925-3.463-7.849Z" transform="translate(-529.3 -573.421)" fill="#a0616a"/>
    <path id="Path_1330" data-name="Path 1330" d="M920.486,813.281s.1-1.539.282-4.463c0,0,7.8-1.539,7.337,3.771a8.706,8.706,0,0,1-4.386,7.157s-1.847-.231-1.616,1.616-6.7,5.772-9.927,2.078l1.987-11.659s2.168,1.5,2.861.808S920.486,813.281,920.486,813.281Z" transform="translate(-735.803 -611.415)" fill="#2f2e41"/>
    <path id="Path_1331" data-name="Path 1331" d="M658.81,201.334l6.464,13.621-11.622,3.172-2.23-12.407Z" transform="translate(-487.175 -150.57)" fill="#a0616a"/>
    <circle id="Ellipse_27" data-name="Ellipse 27" cx="9.004" cy="9.004" r="9.004" transform="translate(155.936 40.375)" fill="#a0616a"/>
    <path id="Path_1332" data-name="Path 1332" d="M836.093,185.52a12.874,12.874,0,0,0-2.428.335,6.145,6.145,0,0,1-6.568-4.581,3.512,3.512,0,0,0-.336-1.095,2.168,2.168,0,0,0-2.3-.7,17.793,17.793,0,0,1-2.49.605,3.812,3.812,0,0,1-3.29-1.862,6.314,6.314,0,0,1-.808-3.814l.633.664a3.214,3.214,0,0,0,.286-1.747,2.027,2.027,0,0,1,1.92.491c.558.059.137-1.035.551-1.413a.958.958,0,0,1,.674-.126c1.187.011,2.147-.9,3.082-1.627a13.1,13.1,0,0,1,5.532-2.523,7.277,7.277,0,0,1,4.036.2,8.621,8.621,0,0,1,2.726,1.934,16.64,16.64,0,0,1,4.58,6.795,11.44,11.44,0,0,1,.055,6.633c-.334,1.126-1.339,4.981-2.811,5.071C837.284,188.867,838.394,185.657,836.093,185.52Z" transform="translate(-665.258 -132.278)" fill="#2f2e41"/>
    <path id="Path_1333" data-name="Path 1333" d="M608,768.13l-.462,7.619L605,778.519l-5.31-3.925,3.463-7.849Z" transform="translate(-448.485 -573.421)" fill="#a0616a"/>
    <path id="Path_1334" data-name="Path 1334" d="M832.584,257.615s1.154-8.542,12.236-5.772,12.236,5.31,12.236,5.31.231,2.309.923,2.54,2.54,1.385,1.616,2.078,4.156,7.619,4.156,7.619,3,1.847,1.154,10.62-3.925,21.471-3.925,21.471.693,4.156-.231,6.464.923,3.925.923,4.848-.462,5.541-.462,5.541-31.4-1.154-35.784,0S832.584,257.615,832.584,257.615Z" transform="translate(-670.183 -194.615)" fill="#fca25d"/>
    <path id="Path_1335" data-name="Path 1335" d="M851.125,506.058s1.847,4.386,0,11.543-2.309,25.165-2.309,25.165,0,34.861-1.616,36.708-1.154,4.848-1.154,4.848H839.12s.231-3.694-.693-5.772-.693-24.472-.693-24.472l-3.925-31.4-7.849,29.782s-3,22.163-4.156,23.087,0,4.617,0,4.617a11.371,11.371,0,0,1-6.926-1.154v-3.694s-3.463-1.385-2.309-6.464.693-60.256,4.156-62.8S851.125,506.058,851.125,506.058Z" transform="translate(-661.136 -384.303)" fill="#2f2e41"/>
    <path id="Path_1336" data-name="Path 1336" d="M797.938,813.281s-.1-1.539-.282-4.463c0,0-7.8-1.539-7.336,3.771a8.705,8.705,0,0,0,4.386,7.157s1.847-.231,1.616,1.616,6.7,5.772,9.927,2.078l-1.987-11.659s-2.168,1.5-2.861.808S797.938,813.281,797.938,813.281Z" transform="translate(-644.657 -611.415)" fill="#2f2e41"/>
    <path id="Path_1337" data-name="Path 1337" d="M793.9,512.611l-.693,3.232s-8.311,13.159-1.385,14.545,6.464-12.7,6.464-12.7l.693-3Z" transform="translate(-643.731 -390.047)" fill="#a0616a"/>
    <path id="Path_1338" data-name="Path 1338" d="M814.032,280.446s4.848-3.232,7.157.693,4.617,12.929,4.617,12.929L822.8,316l-11.082,25.4-6.7-2.54s1.154-3.232.693-4.617,1.847-4.848,1.847-4.848l2.309-18.008S810.8,280.677,814.032,280.446Z" transform="translate(-655.672 -215.484)" fill="#fca25d"/>
    <path id="Path_1339" data-name="Path 1339" d="M629.541,396.366l-7.619,27.473-3.463-1.385Z" transform="translate(-462.523 -296.428)" opacity="0.1"/>
    <path id="Path_1340" data-name="Path 1340" d="M878.639,285.609a22.646,22.646,0,0,0,5.573-.671l-.113-.448a26.864,26.864,0,0,1-14.491-.8,81.805,81.805,0,0,1-13.488-5.988l-.212.41a82.155,82.155,0,0,0,13.566,6.02A31.431,31.431,0,0,0,878.639,285.609Z" transform="translate(-693.722 -214.369)" opacity="0.1"/>
    <rect id="Rectangle_1479" data-name="Rectangle 1479" width="43.872" height="47.15" transform="translate(67.371 126.428)" fill="#fca25d"/>
    <path id="Path_1341" data-name="Path 1341" d="M353.666,202.4c-2.956-6.975-10.481-8.292-10.481-8.292s-7.245-1.933-13.3,7.272c-5.64,8.58-12.912,16.618-3.689,20.043l2.436-5.117.292,5.888a37.551,37.551,0,0,0,4.06.616c10.23,1.039,19.874,2.767,20.052-.93C353.279,216.964,356.51,209.108,353.666,202.4Z" transform="translate(-294.283 -151.723)" fill="#2f2e41"/>
    <path id="Path_1342" data-name="Path 1342" d="M312.052,449.015l-.658,16.786s-6.912,13.495-1.317,13.166,4.937-13.166,4.937-13.166l1.975-15.8Z" transform="translate(-283.881 -342.487)" fill="#ffb8b8"/>
    <path id="Path_1343" data-name="Path 1343" d="M455.967,437.267l1.975,16.786s5.925,8.887,1.317,11.849-4.608-10.533-4.608-10.533l-4.937-17.115Z" transform="translate(-389.945 -333.7)" fill="#ffb8b8"/>
    <path id="Path_1344" data-name="Path 1344" d="M391.455,551.518l-5.924,23.04s-2.633,9.216-6.254,13.824l-1.317,2.633-5.266-.658,3.621-14.811,2.3-27.319Z" transform="translate(-332.345 -416.683)" fill="#ffb8b8"/>
    <path id="Path_1345" data-name="Path 1345" d="M391.455,551.518l-5.924,23.04s-2.633,9.216-6.254,13.824l-1.317,2.633-5.266-.658,3.621-14.811,2.3-27.319Z" transform="translate(-332.345 -416.683)" opacity="0.1"/>
    <path id="Path_1346" data-name="Path 1346" d="M336.241,700.746l9,2.084-3.71,8.745s1.508,5.235.072,8.008-1.229,7.8-1.229,7.8l-1.951-.307s-4.736,8.917-10.333,6.369.356-8.607.356-8.607,4.839-9.567,5.453-13.469S336.241,700.746,336.241,700.746Z" transform="translate(-297.195 -530.747)" fill="#2f2e41"/>
    <path id="Path_1347" data-name="Path 1347" d="M336.241,700.746l9,2.084-3.71,8.745s1.508,5.235.072,8.008-1.229,7.8-1.229,7.8l-1.951-.307s-4.736,8.917-10.333,6.369.356-8.607.356-8.607,4.839-9.567,5.453-13.469S336.241,700.746,336.241,700.746Z" transform="translate(-297.195 -530.747)" opacity="0.1"/>
    <path id="Path_1348" data-name="Path 1348" d="M337.448,541.7l4.937,24.686s-1.646,12.178.329,19.749l1.975,7.241h6.583V566.715s.329-21.723-.658-23.369S337.448,541.7,337.448,541.7Z" transform="translate(-305.986 -411.802)" fill="#ffb8b8"/>
    <path id="Path_1349" data-name="Path 1349" d="M370.161,736.207l-9.216.658,2.3,9.216s-2.3,4.937-1.317,7.9,0,7.9,0,7.9h1.975s3.291,9.545,9.216,7.9.987-8.558.987-8.558-3.291-10.2-3.291-14.153S370.161,736.207,370.161,736.207Z" transform="translate(-323.559 -557.267)" fill="#2f2e41"/>
    <circle id="Ellipse_28" data-name="Ellipse 28" cx="8.887" cy="8.887" r="8.887" transform="translate(40.02 47.283)" fill="#ffb8b8"/>
    <path id="Path_1350" data-name="Path 1350" d="M377.937,262.994s.658,11.191-1.317,11.849,10.2,0,10.2,0-1.646-6.912,0-8.887S377.937,262.994,377.937,262.994Z" transform="translate(-335.119 -203.368)" fill="#ffb8b8"/>
    <path id="Path_1351" data-name="Path 1351" d="M369.57,301.941s-8.558-.658-10.2,0a54.893,54.893,0,0,0-6.254,3.95l2.3,20.736,18.761,3.95,2.962-4.279,2.962-6.254-1.317-7.9-.329-4.608Z" transform="translate(-317.701 -232.276)" fill="#d0cde1"/>
    <path id="Path_1352" data-name="Path 1352" d="M328.037,323.7s-4.279.987-4.608,4.279-.329,11.52,0,12.837,0,1.975-.329,2.3-.987-.329-.329.658.658.987.329,1.975-1.317-.329-.658,1.317.987,1.975.658,2.3-1.317,7.9-1.317,7.9l5.6.987,5.6-19.419Z" transform="translate(-294.27 -248.765)" fill="#d0cde1"/>
    <path id="Path_1353" data-name="Path 1353" d="M441.574,323.7a3.508,3.508,0,0,1,2.962,1.975c.987,1.975,3.621,14.811,3.291,15.8s-.987-.329-.329,1.646,0,1.646.329,2.962-1.317,0,0,1.317,1.975,1.646,1.317,2.3-1.646-.658-.658.658a6.281,6.281,0,0,1,.987,3.291l-7.9,1.646-2.3-18.432Z" transform="translate(-382.135 -248.765)" fill="#d0cde1"/>
    <path id="Path_1354" data-name="Path 1354" d="M322.125,318.788l1.617-.808a1.384,1.384,0,0,1,1.862.63l7.425,15.184,8.229,5.266,5.925-2.633s4.279-6.583,2.962-9.874c-.893-2.232-1.938-5.665-2.519-7.645a.591.591,0,0,1,.9-.657l1.122.748a1.641,1.641,0,0,1,.7,1.033l2.437,11.787-3.291,6.912v6.583l2.3,35.547s-8.558-1.317-17.115-2.962-19.419-2.962-19.419-2.962,5.6-28.965,10.2-33.9c0,0,0-3.621.658-3.95s1.317-2.633,1.317-2.633l-5.962-13.88A1.384,1.384,0,0,1,322.125,318.788Z" transform="translate(-289.389 -244.381)" fill="#fca25d"/>
    <path id="Path_1355" data-name="Path 1355" d="M169.242,179.216l-7.541-3.95-10.414,1.616-2.155,9.516,5.363-.206,1.5-3.5v3.439l2.475-.1,1.436-5.566.9,5.925,8.8-.18Z" transform="translate(-111.531 -131.075)" fill="#2f2e41"/>
    <ellipse id="Ellipse_29" data-name="Ellipse 29" cx="0.987" cy="1.728" rx="0.987" ry="1.728" transform="translate(38.868 54.442)" fill="#ffb8b8"/>
    <path id="Path_1356" data-name="Path 1356" d="M456.825,415.6h-7.174v-7.174h-.276V415.6H442.2v.276h7.174v7.174h.276v-7.174h7.174Z" transform="translate(-330.706 -305.446)" fill="#2f2e41"/>
    <rect id="Rectangle_1480" data-name="Rectangle 1480" width="29.113" height="0.569" transform="translate(74.719 140.54)" fill="#f2f2f2"/>
    <rect id="Rectangle_1481" data-name="Rectangle 1481" width="29.113" height="0.569" transform="translate(74.719 148.279)" fill="#f2f2f2"/>
    <rect id="Rectangle_1482" data-name="Rectangle 1482" width="29.113" height="0.569" transform="translate(74.719 156.018)" fill="#f2f2f2"/>
  </g>
</svg>
