<svg xmlns="http://www.w3.org/2000/svg" width="22.7" height="22.706" viewBox="0 0 22.7 22.706">
  <g id="pin_1_" data-name="pin (1)" transform="translate(1.1 1.1)">
    <g id="Group_8" data-name="Group 8" transform="translate(-1 -0.994)">
      <g id="Group_7" data-name="Group 7">
        <path id="Path_3" data-name="Path 3" d="M193.8,89.964a2.813,2.813,0,1,0-2.813-2.813A2.812,2.812,0,0,0,193.8,89.964Zm0-3.75a.937.937,0,1,1-.937.937A.937.937,0,0,1,193.8,86.214Z" transform="translate(-182.554 -80.589)" fill="#fca25d" stroke="#fff" stroke-width="0.2"/>
        <path id="Path_4" data-name="Path 4" d="M111.009,16.475l.382.763a.938.938,0,0,0,1.677,0l.808-1.617A59.269,59.269,0,0,1,117.2,9.968l.046-.072.529-.833A6.56,6.56,0,0,0,111.462-.951a6.558,6.558,0,0,0-4.521,10.4A45.046,45.046,0,0,1,111.009,16.475Zm-3.42-11.581a4.688,4.688,0,0,1,9.328.674A4.637,4.637,0,0,1,116.2,8.06l-.527.83-.046.072a61.257,61.257,0,0,0-3.4,5.764,42.44,42.44,0,0,0-3.776-6.389A4.666,4.666,0,0,1,107.588,4.894Z" transform="translate(-100.979 0.994)" fill="#fca25d" stroke="#fff" stroke-width="0.2"/>
        <path id="Path_5" data-name="Path 5" d="M16.09,311.485a.938.938,0,1,0-.433,1.824c2.514.6,3.968,1.55,3.968,2.231,0,1.3-4.173,2.813-9.375,2.813S.875,316.836.875,315.541c0-.682,1.453-1.635,3.965-2.231a.938.938,0,1,0-.433-1.824C1.118,312.265-1,313.656-1,315.541c0,2.848,5.06,4.688,11.25,4.688s11.25-1.84,11.25-4.688C21.5,313.656,19.381,312.265,16.09,311.485Z" transform="translate(1 -297.728)" fill="#fca25d" stroke="#fff" stroke-width="0.2"/>
      </g>
    </g>
  </g>
</svg>
