<?xml version="1.0" encoding="UTF-8"?>
<svg width="24px" height="24px" viewBox="0 0 24 24" version="1.1" xmlns="http://www.w3.org/2000/svg" xmlns:xlink="http://www.w3.org/1999/xlink">
    <!-- Generator: Sketch 54.1 (76490) - https://sketchapp.com -->
    <title>pin_1_</title>
    <desc>Created with Sketch.</desc>
    <g id="Page-1" stroke="none" stroke-width="1" fill="none" fill-rule="evenodd" fill-opacity="0.300000012">
        <g id="Artboard-Copy-14" transform="translate(-242.000000, -750.000000)" fill="#4A4D54" fill-rule="nonzero" stroke="#FFFFFF" stroke-width="0.2">
            <g id="Home">
                <g id="Component_47_1">
                    <g transform="translate(0.000000, 703.000000)">
                        <g id="pin_1_" transform="translate(243.000000, 46.995000)">
                            <g id="Group_8" transform="translate(0.000000, 0.006000)">
                                <g id="Group_7">
                                    <path d="M11.246,10.375 C12.799577,10.375 14.059,9.115577 14.059,7.562 C14.059,6.008423 12.799577,4.749 11.246,4.749 C9.692423,4.749 8.433,6.008423 8.433,7.562 C8.43273461,8.30813531 8.72901818,9.02378707 9.25661555,9.55138445 C9.78421293,10.0789818 10.4998647,10.3752654 11.246,10.375 L11.246,10.375 Z M11.246,6.625 C11.7634908,6.625 12.183,7.04450919 12.183,7.562 C12.183,8.07949081 11.7634908,8.499 11.246,8.499 C10.7285092,8.499 10.309,8.07949081 10.309,7.562 C10.309,7.31349215 10.4077194,7.07516253 10.5834409,6.89944095 C10.7591625,6.72371936 10.9974921,6.625 11.246,6.625 Z" id="Path_3"></path>
                                    <path d="M10.03,18.469 L10.412,19.232 C10.5710768,19.5492604 10.8955921,19.7495696 11.2505,19.7495696 C11.6054079,19.7495696 11.9299232,19.5492604 12.089,19.232 L12.897,17.615 C13.8998245,15.6707661 15.0095227,13.7835447 16.221,11.962 L16.267,11.89 L16.796,11.057 C18.1437243,8.91937338 18.1437822,6.19767752 16.796149,4.05999351 C15.4485158,1.9223095 12.9928268,0.748759245 10.483,1.043 C8.16248651,1.3142485 6.16151021,2.79954612 5.23008927,4.94216453 C4.29866833,7.08478293 4.57747299,9.56112764 5.962,11.443 C7.52671692,13.6577799 8.88824531,16.0093282 10.03,18.469 L10.03,18.469 Z M6.61,6.888 C6.96110202,4.45328519 9.13435208,2.70402982 11.5878559,2.88130914 C14.0413597,3.05858847 15.9405611,5.10210116 15.938,7.562 C15.9408518,8.44395 15.6921251,9.30842297 15.221,10.054 L14.694,10.884 L14.648,10.956 C13.4104862,12.8139459 12.2754596,14.7381498 11.248,16.72 C10.1783112,14.4841574 8.91481499,12.3463191 7.472,10.331 C6.74199544,9.34183647 6.43186318,8.1045417 6.609,6.888 L6.61,6.888 Z" id="Path_4"></path>
                                    <path d="M17.09,14.757 C16.7590075,14.6652383 16.4043312,14.7617249 16.1654398,15.0085186 C15.9265483,15.2553122 15.841651,15.6129396 15.9441319,15.9407717 C16.0466127,16.2686039 16.3200805,16.5142058 16.657,16.581 C19.171,17.181 20.625,18.131 20.625,18.812 C20.625,20.112 16.452,21.625 11.25,21.625 C6.048,21.625 1.875,20.108 1.875,18.813 C1.875,18.131 3.328,17.178 5.84,16.582 C6.17691952,16.5152058 6.45038729,16.2696039 6.55286814,15.9417717 C6.65534899,15.6139396 6.57045169,15.2563122 6.33156023,15.0095186 C6.09266877,14.7627249 5.73799248,14.6662383 5.407,14.758 C2.118,15.537 0,16.928 0,18.813 C0,21.661 5.06,23.501 11.25,23.501 C17.44,23.501 22.5,21.661 22.5,18.813 C22.5,16.928 20.381,15.537 17.09,14.757 Z" id="Path_5"></path>
                                </g>
                            </g>
                        </g>
                    </g>
                </g>
            </g>
        </g>
    </g>
</svg>