<?xml version="1.0" encoding="UTF-8"?>
<svg width="213px" height="300px" viewBox="0 0 213 300" version="1.1" xmlns="http://www.w3.org/2000/svg" xmlns:xlink="http://www.w3.org/1999/xlink">
    <!-- Generator: Sketch 54.1 (76490) - https://sketchapp.com -->
    <title>placeholder (3) 2</title>
    <desc>Created with Sketch.</desc>
    <g id="Page-1" stroke="none" stroke-width="1" fill="none" fill-rule="evenodd">
        <g id="Artboard" transform="translate(-233.000000, -263.000000)" fill="#FFFFFF">
            <g id="placeholder-(3)-2" transform="translate(233.000000, 263.000000)">
                <g id="placeholder-(3)">
                    <g id="Group">
                        <path d="M106.933739,0.00228881836 L106.485797,0 C47.7703508,0 0,50.0427246 0,111.554718 C0,145.278168 16.4558829,171.581268 34.7909393,197.772217 L106.345951,300 L178.20906,197.774505 C196.541932,171.583557 213,145.280456 213,111.557007 C213,50.1983643 165.456898,0.251770313 106.933739,0.00228881836 Z M164.419065,187.453176 C164.419065,187.453176 108.803088,267.105863 106.277673,270.703125 L47.9919721,187.450886 C30.7229442,162.787542 16.4297521,140.054492 16.4297521,111.594674 C16.4297521,59.898051 56.4712436,17.8139737 105.774777,17.578125 L106.205518,17.578125 C155.71021,17.578125 195.983471,59.7560842 195.983471,111.596964 C195.983471,140.056782 181.688092,162.787542 164.419065,187.453176 Z" id="Shape" fill-rule="nonzero"></path>
                        <path d="M105.032513,51.5625 C85.6195362,51.5625 69.8264463,67.3329986 69.8264463,86.7182055 C69.8264463,106.103412 85.6195362,121.875 105.032513,121.875 C124.445489,121.875 140.239669,106.103412 140.239669,86.7182055 C140.238579,67.3329986 124.445489,51.5625 105.032513,51.5625 Z M105.032509,113.671875 C90.1494875,113.671875 78.0413223,101.58103 78.0413223,86.7182021 C78.0413223,71.85647 90.1494875,59.765625 105.032509,59.765625 C119.916628,59.765625 132.024793,71.85647 132.024793,86.7182021 C132.024793,101.58103 119.915531,113.671875 105.032509,113.671875 Z" id="Shape" stroke="#FFFFFF" stroke-width="5.859375" fill-rule="nonzero"></path>
                        <path d="M38.7272727,185.431739 L59.5867503,164.03171 C68.7315208,157.252969 72.2603775,157.188175 76.1170209,156.731505 L135.244527,156.731505 C144.117175,157.207291 150.185349,158.556556 154.317916,163.6667 L174.027085,185.567315 L181.020661,172.791956 C173.938605,162.461342 168.657614,155.799905 165.177686,152.807645 C154.281174,143.438142 144.514606,141.911039 139.694985,141.036065 L76.1170209,141.036065 C73.6978636,141.35802 62.7359956,142.447847 52.2231405,150.453329 C47.888037,153.754487 41.1401032,161.153766 31.9793388,172.651166 L38.7272727,185.431739 Z" id="Path-3" stroke="#FFFFFF" stroke-width="1.171875"></path>
                    </g>
                </g>
            </g>
        </g>
    </g>
</svg>