<svg id="ic_s_privacy" xmlns="http://www.w3.org/2000/svg" width="32" height="32" viewBox="0 0 32 32">
  <g id="ic_s_privacy-2" data-name="ic_s_privacy">
    <rect id="Icon" width="32" height="32" rx="7" fill="#fca25d"/>
    <g id="Rectangle_16" data-name="Rectangle 16" transform="translate(6.581 7.162)" fill="none" stroke-miterlimit="10">
      <path d="M.06,2.58A4,4,0,0,1,5.676-.825L9.419.838,13.331-.9a4,4,0,0,1,5.607,3.282l.86,9.173a2,2,0,0,1-1,1.923l-4.318,2.467a10.164,10.164,0,0,1-10.063-.107L.462,13.464a2,2,0,0,1-.967-1.84Z" stroke="none"/>
      <path d="M 14.95536994934082 0.2507772445678711 C 14.60860061645508 0.2507772445678711 14.26710033416748 0.324406623840332 13.94037055969238 0.4696273803710938 L 10.02781009674072 2.20854663848877 L 9.418600082397461 2.479307174682617 L 8.809390068054199 2.20854663848877 L 5.067240715026855 0.5453672409057617 C 4.739980697631836 0.3999166488647461 4.398320198059082 0.326167106628418 4.051750183105469 0.326167106628418 C 2.8974609375 0.326167106628418 1.64862060546875 1.204346656799316 1.556770324707031 2.673947334289551 L 0.9915504455566406 11.71744728088379 C 0.9798507690429688 11.90463733673096 1.072500228881836 12.08087730407715 1.233329772949219 12.17737674713135 L 5.190340042114258 14.55158710479736 C 6.4693603515625 15.31899738311768 7.975749969482422 15.72462749481201 9.546660423278809 15.72462749481201 C 11.04917049407959 15.72462749481201 12.49818992614746 15.35043716430664 13.73707008361816 14.64250755310059 L 18.0550708770752 12.17507743835449 C 18.22505950927734 12.07793712615967 18.32308959960938 11.8892068862915 18.3048210144043 11.69427680969238 L 17.44480133056641 2.520796775817871 C 17.3684196472168 1.706136703491211 16.95368003845215 1.182467460632324 16.61919021606445 0.8866167068481445 C 16.15562057495117 0.4765872955322266 15.56474018096924 0.2507667541503906 14.95539093017578 0.2507772445678711 L 14.95536994934082 0.2507772445678711 M 14.95537185668945 -1.249224662780762 C 16.93251800537109 -1.249245643615723 18.73757362365723 0.2402200698852539 18.9382495880127 2.380786895751953 L 19.79827117919922 11.55426692962646 C 19.87154006958008 12.3358268737793 19.48083114624023 13.08797645568848 18.79928016662598 13.47743701934814 L 14.48128032684326 15.94486713409424 C 12.98695850372314 16.79876518249512 11.26676177978516 17.22462272644043 9.546664237976074 17.22462272644043 C 7.752348899841309 17.22462272644043 5.958104133605957 16.76152610778809 4.418600082397461 15.8378267288208 L 0.4615898132324219 13.4636173248291 C -0.1791400909423828 13.079176902771 -0.5521392822265625 12.36963653564453 -0.5055294036865234 11.62387657165527 L 0.05969047546386719 2.580376625061035 C 0.1970138549804688 0.3832225799560547 2.03172492980957 -1.173834800720215 4.051750183105469 -1.173834800720215 C 4.589777946472168 -1.173834800720215 5.140640258789062 -1.063490867614746 5.676450729370117 -0.825352668762207 L 9.418600082397461 0.8378267288208008 L 13.33116054534912 -0.9010934829711914 C 13.86603355407715 -1.138813972473145 14.41709995269775 -1.249218940734863 14.95537185668945 -1.249224662780762 Z" stroke="none" fill="#fff"/>
    </g>
    <path id="Rectangle_6" data-name="Rectangle 6" d="M8,4H0V0" transform="translate(12.536 14.268) rotate(-30)" fill="none" stroke="#fff" stroke-miterlimit="10" stroke-width="1.5"/>
  </g>
</svg>
