<?xml version="1.0" encoding="UTF-8"?>
<svg width="67px" height="70px" viewBox="0 0 67 70" version="1.1" xmlns="http://www.w3.org/2000/svg" xmlns:xlink="http://www.w3.org/1999/xlink">
    <!-- Generator: Sketch 54.1 (76490) - https://sketchapp.com -->
    <title>request</title>
    <desc>Created with Sketch.</desc>
    <g id="Page-1" stroke="none" stroke-width="1" fill="none" fill-rule="evenodd">
        <g id="Artboard-Copy-14" transform="translate(-154.000000, -557.000000)" fill-rule="nonzero">
            <g id="request" transform="translate(154.000000, 557.000000)">
                <g id="Group" transform="translate(1.116667, 0.957031)">
                    <path d="M64.0030062,27.3024609 L35.5356833,1.28023438 C33.7587875,-0.343984375 31.0014583,-0.343984375 29.2247021,1.28023438 L0.75751875,27.3024609 L0.75751875,55.6839062 L64.0030062,55.6839062 L64.0030062,27.3024609 Z" id="Path" fill="#FCA25D"></path>
                    <path d="M23.0407417,47.6717773 L29.2248417,53.3246875 C31.0017375,54.9489062 33.7589271,54.9489062 35.5358229,53.3246875 C35.5358229,53.3246875 45.1404125,44.5448828 53.1919979,37.1849023 L53.1919979,6.85699219 C53.1919979,5.60615234 52.1567083,4.59197266 50.8795208,4.59197266 L13.880725,4.59197266 C12.6035375,4.59197266 11.5682479,5.60601562 11.5682479,6.85699219 L11.5682479,37.1844922 L23.0407417,47.6717773 Z" id="Path" fill="#F9F5F3"></path>
                    <path d="M50.8796604,4.59210937 L47.6692437,4.59210937 C48.9464312,4.59210937 49.9817208,5.60615234 49.9817208,6.85712891 L49.9817208,40.119707 C51.0618167,39.1324609 52.1402375,38.146582 53.1921375,37.1850391 L53.1921375,6.85699219 C53.1921375,5.60615234 52.1568479,4.59210938 50.8796604,4.59210937 Z" id="Path" fill="#F9EAE0"></path>
                    <path d="M0.75751875,27.3024609 L23.0407417,47.6716406 L29.2248417,53.3245508 C31.0017375,54.9487695 33.7590667,54.9487695 35.5358229,53.3245508 C35.5358229,53.3245508 64.0028667,27.3023242 64.0030062,27.3024609 C64.4647479,27.716582 64.7542437,28.3118555 64.7542437,28.9733008 L64.7542437,63.48125 C64.7542437,65.9830664 62.6836646,68.0111523 60.1292896,68.0111523 L52.6138437,68.0111523 L12.1464021,68.0111523 L4.63081667,68.0111523 C2.07658125,68.0111523 0.00600208333,65.9830664 0.00600208333,63.48125 L0.00600208333,28.9734375 C0.00600208333,28.3118555 0.2956375,27.7164453 0.757379167,27.3023242 L0.75751875,27.3024609 Z" id="Path" fill="#FFCE69"></path>
                    <path d="M0.75751875,27.3024609 L23.0407417,47.6716406 L29.2248417,53.3245508 C31.0017375,54.9487695 33.7590667,54.9487695 35.5358229,53.3245508 C35.5358229,53.3245508 64.0028667,27.3023242 64.0030062,27.3024609 C64.4647479,27.716582 64.7542437,28.3118555 64.7542437,28.9733008 L64.7542437,63.48125 C64.7542437,65.9830664 62.6836646,68.0111523 60.1292896,68.0111523 L52.6138437,68.0111523 L12.1464021,68.0111523 L4.63081667,68.0111523 C2.07658125,68.0111523 0.00600208333,65.9830664 0.00600208333,63.48125 L0.00600208333,28.9734375 C0.00600208333,28.3118555 0.2956375,27.7164453 0.757379167,27.3023242 L0.75751875,27.3024609 Z" id="Path" fill="#FCA25D"></path>
                    <path d="M64.0031458,27.3025977 C64.0031458,27.3025977 63.0707292,28.1549023 61.5439667,29.5505273 L61.5439667,63.4813867 C61.5439667,65.9832031 59.4732479,68.0114258 56.9190125,68.0114258 L60.1294292,68.0114258 C62.6836646,68.0114258 64.7543833,65.9833398 64.7543833,63.4813867 L64.7543833,28.9735742 C64.7543833,28.3119922 64.4648875,27.7167187 64.0031458,27.3025977 Z" id="Path" fill="#FFBD61"></path>
                    <path d="M57.8169521,63.4816602 C59.0941396,63.4816602 60.1294292,62.4676172 60.1294292,61.2166406 C60.1294292,59.9656641 59.0941396,58.9516211 57.8169521,58.9516211 L48.5671833,58.9516211 C47.2899958,58.9516211 46.2547062,59.9656641 46.2547062,61.2166406 C46.2547062,62.4676172 47.2899958,63.4816602 48.5671833,63.4816602 L57.8169521,63.4816602 Z" id="Path" fill="#F9F5F3"></path>
                    <path d="M57.8170917,58.9517578 L54.606675,58.9517578 C55.8838625,58.9517578 56.9191521,59.9658008 56.9191521,61.2167773 C56.9191521,62.4677539 55.8838625,63.4817969 54.606675,63.4817969 L57.8170917,63.4817969 C59.0942792,63.4817969 60.1295687,62.4677539 60.1295687,61.2167773 C60.1294292,59.9658008 59.0941396,58.9517578 57.8170917,58.9517578 Z" id="Path" fill="#F9EAE0"></path>
                    <g transform="translate(25.404167, 8.750000)" fill="#FCA25D">
                        <ellipse id="Oval" transform="translate(6.966563, 24.950772) rotate(-80.792031) translate(-6.966563, -24.950772) " cx="6.96656327" cy="24.9507718" rx="2.26598563" ry="2.31100734"></ellipse>
                        <path d="M6.97609583,18.1591211 C5.69890833,18.1591211 4.66361875,17.1450781 4.66361875,15.8941016 L4.66361875,13.629082 C4.66361875,11.5545117 5.91582083,9.7103125 7.85351667,8.93087891 C8.77741875,8.55927734 9.35166458,7.65023437 9.28257083,6.66873047 C9.20524167,5.57019531 8.26640417,4.65048828 7.14499167,4.57474609 C6.49453333,4.53167969 5.87241042,4.74482422 5.39894375,5.17767578 C4.92477917,5.61107422 4.66361875,6.199375 4.66361875,6.83416016 C4.66361875,8.08513672 3.62832917,9.09917969 2.35114167,9.09917969 C1.07395417,9.09917969 0.0386645833,8.08513672 0.0386645833,6.83416016 C0.0386645833,4.95769531 0.842245833,3.14699219 2.24310417,1.86607422 C3.64340417,0.585976562 5.54480833,-0.0745117188 7.46338125,0.0556445312 C10.8942,0.287519531 13.6599042,2.99646484 13.8963583,6.35701172 C14.1029417,9.28853516 12.3804833,12.0070508 9.6103125,13.1213086 C9.41782708,13.1986914 9.28843333,13.4028125 9.28843333,13.629082 L9.28843333,15.8941016 C9.28857292,17.1450781 8.25328333,18.1591211 6.97609583,18.1591211 L6.97609583,18.1591211 Z" id="Path"></path>
                    </g>
                </g>
                <g id="Group" fill="#000000">
                    <path d="M65.8364333,27.5123242 C65.8355958,27.5115039 65.8348979,27.5106836 65.8339208,27.5098633 L65.8287562,27.5052148 C65.8280583,27.504668 65.8275,27.5039844 65.8268021,27.5033008 C65.8266625,27.5031641 65.8263833,27.5030273 65.8262437,27.5027539 L55.3556792,17.9314844 L55.3556792,13.4502539 C55.3556792,12.8838281 54.8870979,12.4248633 54.3088042,12.4248633 C53.7305104,12.4248633 53.2619292,12.8838281 53.2619292,13.4502539 L53.2619292,37.6962305 L35.9382417,53.5319531 C34.5693479,54.7834766 32.42465,54.7834766 31.0557562,53.5319531 L13.7317896,37.695957 L13.7317896,7.81416016 C13.7317896,7.13056641 14.299475,6.57453125 14.9972521,6.57453125 L51.9963271,6.57453125 C52.6941042,6.57453125 53.2617896,7.13056641 53.2617896,7.81416016 L53.2617896,9.34882812 C53.2617896,9.91525391 53.7303708,10.3742187 54.3086646,10.3742187 C54.8869583,10.3742187 55.3555396,9.91525391 55.3555396,9.34882812 L55.3555396,7.81416016 C55.3555396,5.99976562 53.8485979,4.52375 51.9963271,4.52375 L40.6878437,4.52375 L37.3665979,1.48777344 C35.1969146,-0.495742188 31.7973625,-0.495878906 29.6271208,1.48777344 L26.305875,4.52375 L14.9973917,4.52375 C13.1449812,4.52375 11.6381792,5.99990234 11.6381792,7.81416016 L11.6381792,17.9317578 L1.16803333,27.5026172 C1.16789375,27.5027539 1.16761458,27.5030273 1.16733542,27.5031641 C1.16649792,27.5038477 1.1658,27.504668 1.1649625,27.5053516 L1.16007708,27.5098633 C1.15923958,27.5105469 1.15854167,27.5115039 1.15770417,27.5121875 C0.470116667,28.1335742 0.07579375,29.0141797 0.07579375,29.9304687 L0.07579375,64.4382812 C0.07579375,67.5014648 2.62025833,69.9937109 5.74762292,69.9937109 L10.5913042,69.9937109 C11.1695979,69.9937109 11.6381792,69.5347461 11.6381792,68.9683203 C11.6381792,68.4018945 11.1695979,67.9429297 10.5913042,67.9429297 L5.74748333,67.9429297 C3.77447292,67.9429297 2.16940417,66.3708008 2.16940417,64.4382812 L2.16940417,29.9321094 L29.6272604,55.0312109 C30.7122417,56.0232422 32.1044458,56.5191211 33.4970687,56.5191211 C34.8894125,56.5191211 36.2820354,56.0231055 37.3668771,55.0313477 L64.824175,29.9323828 L64.824175,64.438418 C64.824175,66.3709375 63.2191062,67.9430664 61.2460958,67.9430664 L14.7788042,67.9430664 C14.2005104,67.9430664 13.7319292,68.4020312 13.7319292,68.968457 C13.7319292,69.5348828 14.2005104,69.9938477 14.7788042,69.9938477 L61.2460958,69.9938477 C64.3734604,69.9938477 66.917925,67.5016016 66.917925,64.438418 L66.917925,29.9306055 C66.917925,29.0144531 66.5237417,28.1339844 65.8364333,27.5123242 Z M31.0556167,2.98703125 C32.4245104,1.73550781 34.5692083,1.73550781 35.9381021,2.98703125 L37.6191042,4.52361328 L29.3746146,4.52361328 L31.0556167,2.98703125 Z M11.6380396,35.7820313 L3.408625,28.2596289 L11.6379,20.7369531 L11.6379,35.7820313 L11.6380396,35.7820313 Z M55.3556792,20.7368164 L63.5852333,28.2596289 L55.3556792,35.7824414 L55.3556792,20.7368164 Z" id="Shape"></path>
                    <path d="M58.9337583,65.4642188 C60.7861687,65.4642188 62.2929708,63.9880664 62.2929708,62.1738086 C62.2929708,60.3595508 60.7860292,58.8835352 58.9337583,58.8835352 L49.68385,58.8835352 C47.8315792,58.8835352 46.3246375,60.3595508 46.3246375,62.1738086 C46.3246375,63.9880664 47.8315792,65.4642188 49.68385,65.4642188 L58.9337583,65.4642188 Z M48.4183875,62.1736719 C48.4183875,61.4902148 48.9860729,60.9341797 49.68385,60.9341797 L58.9337583,60.9341797 C59.6315354,60.9341797 60.1992208,61.4902148 60.1992208,62.1736719 C60.1992208,62.8572656 59.6315354,63.4133008 58.9337583,63.4133008 L49.68385,63.4133008 C48.9860729,63.4134375 48.4183875,62.8572656 48.4183875,62.1736719 Z" id="Shape"></path>
                    <path d="M33.4967896,31.3706641 C31.6443792,31.3706641 30.1375771,32.8466797 30.1375771,34.6609375 C30.1375771,36.4751953 31.6445187,37.9512109 33.4967896,37.9512109 C35.3490604,37.9512109 36.8560021,36.4751953 36.8560021,34.6609375 C36.8561417,32.8466797 35.3492,31.3706641 33.4967896,31.3706641 Z M33.4967896,35.9005664 C32.7990125,35.9005664 32.2313271,35.3445312 32.2313271,34.6610742 C32.2313271,33.9776172 32.7990125,33.421582 33.4967896,33.421582 C34.1945667,33.421582 34.7622521,33.9776172 34.7622521,34.6610742 C34.7623917,35.3445312 34.1945667,35.9005664 33.4967896,35.9005664 Z" id="Shape"></path>
                    <path d="M36.8562812,23.6370312 C39.8518792,22.2775 41.6911687,19.2497266 41.4618333,15.9937695 C41.1893667,12.1251758 38.00575,9.00675781 34.0565187,8.73974609 C31.8512417,8.59003906 29.6618771,9.34978516 28.0498292,10.8236133 C26.4375021,12.2974414 25.5127625,14.3814453 25.5127625,16.5411914 C25.5127625,18.3554492 27.0197042,19.8314648 28.871975,19.8314648 C30.7243854,19.8314648 32.2311875,18.3554492 32.2311875,16.5411914 C32.2311875,16.1887305 32.3704917,15.8752344 32.6338854,15.6344727 C32.8926729,15.3980859 33.2349312,15.2813281 33.5938,15.3048437 C34.1948458,15.3454492 34.7175854,15.8575977 34.7590417,16.446582 C34.7970083,16.9863477 34.4828062,17.4860547 33.9766771,17.6894922 C31.6445187,18.6275195 30.1375771,20.8440039 30.1375771,23.33625 L30.1375771,25.6011328 C30.1375771,27.4153906 31.6446583,28.891543 33.4969292,28.891543 C35.3493396,28.891543 36.8561417,27.4153906 36.8561417,25.6011328 L36.8561417,23.6370312 L36.8562812,23.6370312 Z M35.7336125,21.8800586 C35.1435938,22.1174023 34.7625312,22.6890234 34.7625312,23.33625 L34.7625312,25.6011328 C34.7625312,26.2847266 34.1948458,26.8407617 33.4970687,26.8407617 C32.7991521,26.8407617 32.2314667,26.2847266 32.2314667,25.6011328 L32.2314667,23.33625 C32.2314667,21.6792188 33.2287896,20.2074414 34.7721625,19.5864648 C36.1139771,19.0469727 36.9482667,17.7283203 36.8480458,16.3053516 C36.7352625,14.7072461 35.3693,13.369043 33.7367333,13.2589844 C33.6568917,13.2536523 33.5774687,13.250918 33.4986042,13.250918 C32.6412833,13.250918 31.8346313,13.5603125 31.2058083,14.1350781 C30.5171042,14.7645313 30.1377167,15.6190234 30.1377167,16.5413281 C30.1377167,17.2247852 29.5700313,17.7808203 28.8722542,17.7808203 C28.1744771,17.7808203 27.6067917,17.2247852 27.6067917,16.5413281 C27.6067917,14.9480078 28.289075,13.4104688 29.4786042,12.3228711 C30.6679938,11.2356836 32.2840896,10.6755469 33.9126083,10.7858789 C36.8247354,10.9824805 39.1725271,13.2822266 39.3732479,16.135 C39.548425,18.6249219 38.0858708,20.9338281 35.7336125,21.8800586 L35.7336125,21.8800586 Z" id="Shape"></path>
                </g>
            </g>
        </g>
    </g>
</svg>