<svg xmlns="http://www.w3.org/2000/svg" width="28.041" height="28.5" viewBox="0 0 28.041 28.5">
  <g id="Symbol_147_3" data-name="Symbol 147 – 3" transform="translate(0.92 0.75)">
    <rect id="Rectangle_193" data-name="Rectangle 193" width="27" height="27" fill="none"/>
    <path id="Path_104" data-name="Path 104" d="M272.928,16.875A3.376,3.376,0,1,0,269.48,13.5,3.422,3.422,0,0,0,272.928,16.875Zm-7.067-10.8A9.786,9.786,0,0,1,270,3.881L271.376,0h3.447L276.2,3.881a12.118,12.118,0,0,1,4.137,2.194l4.137-.844L286.2,8.269l-2.758,3.037a9.424,9.424,0,0,1,.172,2.194c0,.675-.172,1.519-.172,2.194l2.758,3.037-1.724,3.038-4.137-.844a9.786,9.786,0,0,1-4.137,2.194L274.824,27h-3.447L270,23.119a12.118,12.118,0,0,1-4.137-2.194l-4.137.844L260,18.731l2.758-3.038a9.424,9.424,0,0,1-.172-2.194c0-.675.172-1.519.172-2.194L260,8.269l1.724-3.038Z" transform="translate(-260)" fill="none" stroke="#95989a" stroke-width="1.5" fill-rule="evenodd"/>
  </g>
</svg>
